<?xml version="1.0" encoding="UTF-8"?>
<svg xmlns="http://www.w3.org/2000/svg" xmlns:xlink="http://www.w3.org/1999/xlink" viewBox="0 0 80 80" width="80px" height="80px">
<g id="surface166791532">
<path style=" stroke:none;fill-rule:nonzero;fill:rgb(94.509804%,73.725492%,9.803922%);fill-opacity:1;" d="M 61.601562 9.601562 C 61.15625 9.601562 60.800781 9.957031 60.800781 10.398438 C 60.800781 10.84375 61.15625 11.199219 61.601562 11.199219 C 62.042969 11.199219 62.398438 10.84375 62.398438 10.398438 C 62.398438 9.957031 62.042969 9.601562 61.601562 9.601562 Z M 61.601562 9.601562 "/>
<path style=" stroke:none;fill-rule:nonzero;fill:rgb(98.823529%,87.843138%,63.529414%);fill-opacity:1;" d="M 40 10.398438 C 23.652344 10.398438 10.398438 23.652344 10.398438 40 C 10.398438 56.347656 23.652344 69.601562 40 69.601562 C 56.347656 69.601562 69.601562 56.347656 69.601562 40 C 69.601562 23.652344 56.347656 10.398438 40 10.398438 Z M 40 10.398438 "/>
<path style=" stroke:none;fill-rule:nonzero;fill:rgb(94.509804%,73.725492%,9.803922%);fill-opacity:1;" d="M 66.398438 8.800781 C 64.632812 8.800781 63.199219 10.234375 63.199219 12 C 63.199219 13.765625 64.632812 15.199219 66.398438 15.199219 C 68.167969 15.199219 69.601562 13.765625 69.601562 12 C 69.601562 10.234375 68.167969 8.800781 66.398438 8.800781 Z M 66.398438 8.800781 "/>
<path style=" stroke:none;fill-rule:nonzero;fill:rgb(53.333336%,53.725493%,72.549021%);fill-opacity:1;" d="M 69.601562 17.601562 C 68.714844 17.601562 68 18.316406 68 19.199219 C 68 20.082031 68.714844 20.800781 69.601562 20.800781 C 70.484375 20.800781 71.199219 20.082031 71.199219 19.199219 C 71.199219 18.316406 70.484375 17.601562 69.601562 17.601562 Z M 69.601562 17.601562 "/>
<path style=" stroke:none;fill-rule:nonzero;fill:rgb(98.431373%,80.392158%,34.901962%);fill-opacity:1;" d="M 64.800781 59.199219 C 63.917969 59.199219 63.199219 59.917969 63.199219 60.800781 C 63.199219 61.683594 63.917969 62.398438 64.800781 62.398438 C 65.683594 62.398438 66.398438 61.683594 66.398438 60.800781 C 66.398438 59.917969 65.683594 59.199219 64.800781 59.199219 Z M 12 47.199219 C 10.234375 47.199219 8.800781 48.632812 8.800781 50.398438 C 8.800781 52.167969 10.234375 53.601562 12 53.601562 C 13.765625 53.601562 15.199219 52.167969 15.199219 50.398438 C 15.199219 48.632812 13.765625 47.199219 12 47.199219 Z M 12 47.199219 "/>
<path style=" stroke:none;fill-rule:nonzero;fill:rgb(53.333336%,53.725493%,72.549021%);fill-opacity:1;" d="M 20 68 C 19.117188 68 18.398438 68.714844 18.398438 69.601562 C 18.398438 70.484375 19.117188 71.199219 20 71.199219 C 20.882812 71.199219 21.601562 70.484375 21.601562 69.601562 C 21.601562 68.714844 20.882812 68 20 68 Z M 20 68 "/>
<path style=" stroke:none;fill-rule:nonzero;fill:rgb(100%,100%,100%);fill-opacity:1;" d="M 14.800781 39.199219 C 13.695312 39.199219 12.800781 40.09375 12.800781 41.199219 C 12.800781 42.304688 13.695312 43.199219 14.800781 43.199219 C 15.90625 43.199219 16.800781 42.304688 16.800781 41.199219 C 16.800781 40.09375 15.90625 39.199219 14.800781 39.199219 Z M 63.601562 25.601562 C 62.9375 25.601562 62.398438 26.136719 62.398438 26.800781 C 62.398438 27.460938 62.9375 28 63.601562 28 C 64.261719 28 64.800781 27.460938 64.800781 26.800781 C 64.800781 26.136719 64.261719 25.601562 63.601562 25.601562 Z M 63.601562 25.601562 "/>
<path style=" stroke:none;fill-rule:nonzero;fill:rgb(63.921571%,63.921571%,80.392158%);fill-opacity:1;" d="M 40 20.5 C 29.285156 20.5 20.601562 29.1875 20.601562 39.898438 C 20.601562 50.613281 29.285156 59.300781 40 59.300781 C 50.714844 59.300781 59.398438 50.613281 59.398438 39.898438 C 59.398438 29.1875 50.714844 20.5 40 20.5 Z M 40 20.5 "/>
<path style=" stroke:none;fill-rule:nonzero;fill:rgb(27.843139%,16.862746%,16.078432%);fill-opacity:1;" d="M 40 59.859375 C 28.996094 59.859375 20.039062 50.90625 20.039062 39.898438 C 20.039062 28.894531 28.996094 19.941406 40 19.941406 C 51.003906 19.941406 59.960938 28.894531 59.960938 39.898438 C 59.960938 50.90625 51.003906 59.859375 40 59.859375 Z M 40 21.058594 C 29.613281 21.058594 21.160156 29.511719 21.160156 39.898438 C 21.160156 50.289062 29.613281 58.738281 40 58.738281 C 50.386719 58.738281 58.839844 50.289062 58.839844 39.898438 C 58.839844 29.511719 50.386719 21.058594 40 21.058594 Z M 40 21.058594 "/>
<path style=" stroke:none;fill-rule:nonzero;fill:rgb(33.725491%,37.254903%,63.137257%);fill-opacity:1;" d="M 40 23.332031 C 30.941406 23.332031 23.601562 30.675781 23.601562 39.734375 C 23.601562 48.792969 30.941406 56.132812 40 56.132812 C 49.058594 56.132812 56.398438 48.792969 56.398438 39.734375 C 56.398438 30.675781 49.058594 23.332031 40 23.332031 Z M 40 23.332031 "/>
<path style=" stroke:none;fill-rule:nonzero;fill:rgb(27.843139%,16.862746%,16.078432%);fill-opacity:1;" d="M 55.539062 35.699219 C 55.367188 35.699219 55.210938 35.589844 55.15625 35.417969 C 55.085938 35.1875 55.011719 34.960938 54.929688 34.734375 C 54.617188 33.859375 54.222656 33.007812 53.753906 32.199219 C 53.640625 32.007812 53.707031 31.761719 53.898438 31.652344 C 54.089844 31.539062 54.335938 31.605469 54.445312 31.800781 C 54.9375 32.648438 55.351562 33.542969 55.683594 34.464844 C 55.765625 34.703125 55.847656 34.941406 55.921875 35.179688 C 55.984375 35.394531 55.867188 35.617188 55.65625 35.679688 C 55.617188 35.695312 55.578125 35.699219 55.539062 35.699219 Z M 55.539062 35.699219 "/>
<path style=" stroke:none;fill-rule:nonzero;fill:rgb(27.843139%,16.862746%,16.078432%);fill-opacity:1;" d="M 40 56.601562 C 30.792969 56.601562 23.300781 49.128906 23.300781 39.949219 C 23.300781 30.769531 30.792969 23.300781 40 23.300781 C 44.78125 23.300781 49.339844 25.347656 52.507812 28.917969 C 52.746094 29.1875 52.980469 29.464844 53.199219 29.75 C 53.335938 29.925781 53.304688 30.175781 53.132812 30.3125 C 52.957031 30.449219 52.707031 30.417969 52.570312 30.242188 C 52.359375 29.96875 52.136719 29.707031 51.910156 29.449219 C 48.894531 26.050781 44.550781 24.097656 40 24.097656 C 31.234375 24.097656 24.101562 31.210938 24.101562 39.949219 C 24.101562 48.691406 31.234375 55.800781 40 55.800781 C 48.765625 55.800781 55.898438 48.691406 55.898438 39.949219 C 55.898438 39.152344 55.839844 38.351562 55.722656 37.570312 C 55.691406 37.355469 55.839844 37.148438 56.058594 37.117188 C 56.28125 37.082031 56.480469 37.234375 56.511719 37.453125 C 56.636719 38.273438 56.699219 39.113281 56.699219 39.949219 C 56.699219 49.128906 49.207031 56.601562 40 56.601562 Z M 40 56.601562 "/>
<path style=" stroke:none;fill-rule:nonzero;fill:rgb(99.607843%,99.215686%,93.725491%);fill-opacity:1;" d="M 49.195312 33.671875 C 49.488281 32.332031 49.363281 30.675781 48.808594 29.015625 C 45.910156 29.015625 43.738281 31.1875 43.738281 31.1875 C 43.738281 31.1875 43.75 31.203125 43.753906 31.207031 C 43.703125 31.207031 43.652344 31.199219 43.601562 31.199219 L 36.398438 31.199219 C 36.367188 31.199219 36.332031 31.203125 36.296875 31.203125 C 36.300781 31.203125 36.3125 31.1875 36.3125 31.1875 C 36.3125 31.1875 34.136719 29.015625 31.238281 29.015625 C 30.691406 30.660156 30.558594 32.300781 30.839844 33.628906 C 29.578125 34.984375 28.800781 36.800781 28.800781 38.800781 C 28.800781 42.996094 32.203125 46.398438 36.398438 46.398438 L 37.257812 46.398438 C 36.214844 46.96875 35.460938 47.984375 35.265625 49.199219 C 33.886719 49.382812 32.082031 49.34375 31.242188 48.082031 C 29.792969 45.910156 29.066406 45.910156 28.34375 45.910156 C 27.621094 45.910156 27.621094 46.632812 28.34375 47.359375 C 29.070312 48.082031 29.070312 48.082031 29.792969 49.53125 C 30.410156 50.765625 32.042969 52.171875 35.199219 51.664062 L 35.199219 54.480469 C 35.199219 54.839844 35.265625 55.175781 35.355469 55.507812 C 37.292969 55.96875 40.554688 56.355469 44.6875 55.386719 C 44.753906 55.09375 44.800781 54.792969 44.800781 54.480469 L 44.800781 49.828125 C 44.800781 48.34375 43.960938 47.0625 42.742188 46.398438 L 43.601562 46.398438 C 47.796875 46.398438 51.199219 42.996094 51.199219 38.800781 C 51.199219 36.820312 50.4375 35.023438 49.195312 33.671875 Z M 49.195312 33.671875 "/>
<path style=" stroke:none;fill-rule:nonzero;fill:rgb(27.843139%,16.862746%,16.078432%);fill-opacity:1;" d="M 39.625 56.390625 C 37.839844 56.390625 36.367188 56.160156 35.261719 55.894531 C 35.117188 55.863281 35.003906 55.753906 34.964844 55.613281 C 34.851562 55.195312 34.800781 54.835938 34.800781 54.480469 L 34.800781 52.121094 C 31.148438 52.53125 29.777344 50.398438 29.433594 49.710938 C 28.738281 48.320312 28.738281 48.320312 28.0625 47.640625 C 27.5 47.082031 27.277344 46.476562 27.464844 46.023438 C 27.601562 45.695312 27.921875 45.507812 28.34375 45.507812 C 29.316406 45.507812 30.117188 45.679688 31.574219 47.859375 C 32.246094 48.867188 33.714844 48.964844 34.929688 48.835938 C 35.113281 48.054688 35.507812 47.351562 36.066406 46.792969 C 31.808594 46.617188 28.398438 43.101562 28.398438 38.800781 C 28.398438 36.847656 29.113281 34.976562 30.410156 33.507812 C 30.164062 32.132812 30.324219 30.5 30.863281 28.890625 C 30.914062 28.726562 31.070312 28.617188 31.242188 28.617188 C 33.925781 28.617188 35.984375 30.34375 36.480469 30.800781 L 43.566406 30.800781 C 44.0625 30.34375 46.121094 28.617188 48.808594 28.617188 C 48.980469 28.617188 49.132812 28.726562 49.1875 28.890625 C 49.730469 30.519531 49.882812 32.167969 49.628906 33.554688 C 50.898438 35.015625 51.597656 36.871094 51.597656 38.800781 C 51.597656 43.101562 48.1875 46.621094 43.929688 46.792969 C 44.730469 47.589844 45.199219 48.675781 45.199219 49.828125 L 45.199219 54.480469 C 45.199219 54.796875 45.15625 55.121094 45.074219 55.476562 C 45.039062 55.625 44.921875 55.742188 44.773438 55.773438 C 42.867188 56.222656 41.136719 56.390625 39.625 56.390625 Z M 35.679688 55.171875 C 37.609375 55.601562 40.605469 55.890625 44.34375 55.054688 C 44.382812 54.851562 44.398438 54.664062 44.398438 54.480469 L 44.398438 49.828125 C 44.398438 48.550781 43.691406 47.371094 42.550781 46.753906 C 42.390625 46.664062 42.308594 46.480469 42.355469 46.300781 C 42.398438 46.125 42.558594 46 42.742188 46 L 43.601562 46 C 47.570312 46 50.800781 42.769531 50.800781 38.800781 C 50.800781 37.003906 50.125 35.277344 48.902344 33.941406 C 48.8125 33.84375 48.777344 33.710938 48.804688 33.585938 C 49.070312 32.371094 48.96875 30.902344 48.519531 29.425781 C 46.222656 29.546875 44.4375 31.082031 44.085938 31.410156 C 44.011719 31.53125 43.886719 31.609375 43.742188 31.609375 C 43.734375 31.609375 43.664062 31.601562 43.660156 31.601562 L 36.398438 31.601562 C 36.277344 31.601562 36.132812 31.546875 36.046875 31.457031 L 36.03125 31.472656 C 36.007812 31.453125 34.078125 29.558594 31.53125 29.421875 C 31.085938 30.886719 30.980469 32.34375 31.234375 33.546875 C 31.261719 33.671875 31.222656 33.804688 31.132812 33.902344 C 29.886719 35.242188 29.199219 36.980469 29.199219 38.800781 C 29.199219 42.769531 32.429688 46 36.398438 46 L 37.257812 46 C 37.441406 46 37.601562 46.125 37.644531 46.300781 C 37.691406 46.480469 37.609375 46.664062 37.449219 46.753906 C 36.484375 47.273438 35.832031 48.191406 35.660156 49.261719 C 35.628906 49.4375 35.492188 49.570312 35.316406 49.59375 C 33.1875 49.882812 31.664062 49.4375 30.90625 48.304688 C 29.578125 46.3125 28.976562 46.3125 28.34375 46.3125 C 28.234375 46.3125 28.199219 46.335938 28.199219 46.335938 C 28.179688 46.386719 28.234375 46.683594 28.625 47.078125 C 29.394531 47.847656 29.425781 47.902344 30.148438 49.355469 C 30.445312 49.945312 31.679688 51.828125 35.136719 51.269531 C 35.253906 51.253906 35.371094 51.285156 35.460938 51.359375 C 35.546875 51.4375 35.601562 51.546875 35.601562 51.664062 L 35.601562 54.480469 C 35.601562 54.699219 35.625 54.921875 35.679688 55.171875 Z M 35.679688 55.171875 "/>
<path style=" stroke:none;fill-rule:nonzero;fill:rgb(99.607843%,99.215686%,93.725491%);fill-opacity:1;" d="M 48.347656 41.089844 C 47.628906 42.683594 46.046875 44.011719 43.265625 44.234375 "/>
<path style=" stroke:none;fill-rule:nonzero;fill:rgb(27.843139%,16.862746%,16.078432%);fill-opacity:1;" d="M 43.265625 44.433594 C 43.164062 44.433594 43.074219 44.355469 43.066406 44.25 C 43.058594 44.140625 43.140625 44.042969 43.25 44.035156 C 46.292969 43.789062 47.605469 42.253906 48.167969 41.007812 C 48.214844 40.90625 48.332031 40.859375 48.433594 40.90625 C 48.53125 40.953125 48.578125 41.070312 48.53125 41.171875 C 47.671875 43.074219 45.808594 44.230469 43.28125 44.433594 C 43.277344 44.433594 43.273438 44.433594 43.265625 44.433594 Z M 43.265625 44.433594 "/>
<path style=" stroke:none;fill-rule:nonzero;fill:rgb(99.607843%,99.215686%,93.725491%);fill-opacity:1;" d="M 48.765625 37.929688 C 48.855469 38.53125 48.855469 39.167969 48.742188 39.800781 "/>
<path style=" stroke:none;fill-rule:nonzero;fill:rgb(27.843139%,16.862746%,16.078432%);fill-opacity:1;" d="M 48.742188 40 C 48.730469 40 48.722656 40 48.707031 40 C 48.601562 39.980469 48.527344 39.875 48.546875 39.765625 C 48.648438 39.179688 48.65625 38.554688 48.570312 37.957031 C 48.554688 37.847656 48.628906 37.746094 48.738281 37.730469 C 48.847656 37.714844 48.949219 37.789062 48.964844 37.898438 C 49.0625 38.546875 49.050781 39.199219 48.941406 39.835938 C 48.925781 39.933594 48.839844 40 48.742188 40 Z M 48.742188 40 "/>
<path style=" stroke:none;fill-rule:nonzero;fill:rgb(99.607843%,99.215686%,93.725491%);fill-opacity:1;" d="M 47.265625 35.101562 C 47.773438 35.460938 48.183594 36.042969 48.457031 36.742188 "/>
<path style=" stroke:none;fill-rule:nonzero;fill:rgb(27.843139%,16.862746%,16.078432%);fill-opacity:1;" d="M 48.457031 36.945312 C 48.375 36.945312 48.300781 36.894531 48.269531 36.816406 C 48.003906 36.132812 47.617188 35.59375 47.152344 35.265625 C 47.0625 35.199219 47.039062 35.074219 47.101562 34.984375 C 47.167969 34.894531 47.292969 34.875 47.382812 34.9375 C 47.910156 35.3125 48.347656 35.914062 48.644531 36.671875 C 48.683594 36.773438 48.632812 36.890625 48.53125 36.929688 C 48.503906 36.941406 48.480469 36.945312 48.457031 36.945312 Z M 48.457031 36.945312 "/>
</g>
</svg>
