<?xml version="1.0" encoding="UTF-8"?>
<svg version="1.1" xmlns="http://www.w3.org/2000/svg" width="1536" height="1024">
<path d="M0 0 C506.88 0 1013.76 0 1536 0 C1536 337.92 1536 675.84 1536 1024 C1029.12 1024 522.24 1024 0 1024 C0 686.08 0 348.16 0 0 Z " fill="#FEFEFE" transform="translate(0,0)"/>
<path d="M0 0 C0.73199887 -0.00085442 1.46399774 -0.00170885 2.21817839 -0.00258917 C4.65944441 -0.00423012 7.100641 0.00125463 9.54190063 0.00672913 C11.29645791 0.00701132 13.0510153 0.00685263 14.80557251 0.00628662 C19.56127426 0.00599992 24.31695074 0.01187621 29.07264662 0.01886058 C34.04543905 0.02511517 39.01823207 0.02569958 43.99102783 0.02688599 C53.4043977 0.02999309 62.81775595 0.03819812 72.23112071 0.04823548 C82.94931311 0.05941589 93.66750607 0.06491193 104.38570285 0.06993091 C126.43077657 0.08038123 148.47583982 0.09796867 170.52090454 0.12025452 C168.65683479 4.05279927 166.16472545 7.29824084 163.45840454 10.68275452 C162.71759644 11.616922 162.71759644 11.616922 161.96182251 12.56996155 C158.33489784 17.13196187 154.66010135 21.65388304 150.95840454 26.15541077 C143.43917122 35.3014013 135.98015714 44.49026529 128.69204712 53.82167053 C124.04868749 59.75274816 119.28756294 65.58645392 114.52871704 71.42494202 C110.8284835 75.96540326 107.17024304 80.53883389 103.52090454 85.12025452 C98.82164591 91.01975669 94.09059082 96.89241845 89.33340454 102.74525452 C88.77967163 103.42652405 88.22593872 104.10779358 87.65542603 104.80970764 C84.83347905 108.2801313 82.00892212 111.74839852 79.18106079 115.21400452 C74.09387572 121.45387275 69.0345245 127.70918504 64.08340454 134.05775452 C59.40705077 140.05400527 54.58455317 145.92101499 49.73452759 151.77723694 C45.0039746 157.50183958 40.38913736 163.30891068 35.82559204 169.16712952 C35.06504517 170.14166077 34.30449829 171.11619202 33.52090454 172.12025452 C33.00310425 172.99319153 32.48530396 173.86612854 31.95181274 174.76551819 C28.34087224 178.26331081 25.1761894 177.82343057 20.32168579 177.74916077 C18.95900826 177.7527787 18.95900826 177.7527787 17.56880188 177.75646973 C15.63962457 177.75549006 13.71041958 177.74206785 11.78140259 177.71717834 C8.8882051 177.68339442 5.99815774 177.69638006 3.10488892 177.71595764 C-11.39027897 177.70613723 -25.94271009 176.44936997 -38.91659546 169.37025452 C-39.90212402 168.85265564 -39.90212402 168.85265564 -40.90756226 168.32460022 C-46.65292515 165.21279356 -51.67222597 161.55369778 -56.47909546 157.12025452 C-57.85001343 155.8866217 -57.85001343 155.8866217 -59.24862671 154.62806702 C-66.08251694 148.17747295 -71.02927744 141.37984823 -75.47909546 133.12025452 C-75.96120483 132.2269342 -76.44331421 131.33361389 -76.94003296 130.41322327 C-87.36234947 109.34751081 -87.94479584 84.62998454 -81.37753296 62.38978577 C-73.61150867 39.4173849 -58.6136339 20.97789103 -37.25253296 9.36634827 C-25.5009723 3.66212357 -13.09951896 -0.00923802 0 0 Z " fill="#FEAC00" transform="translate(256.4790954589844,355.87974548339844)"/>
<path d="M0 0 C1.37178263 0.00545266 2.74357826 0.00822399 4.1153717 0.00845337 C6.99333302 0.01617806 9.86976653 0.04709104 12.74731445 0.09619141 C16.39499115 0.15792753 20.04118845 0.17701619 23.68933773 0.17998314 C26.52690017 0.18474297 29.36416203 0.20568892 32.20160103 0.23186111 C34.18749891 0.24944654 36.17345785 0.25965456 38.15940857 0.2696228 C59.62583528 0.65555679 79.48968708 7.93713961 95.22265625 22.7890625 C111.9573839 41.44508168 117.65040322 63.64454872 116.40722656 88.26660156 C114.88131135 109.12077609 105.43263332 128.9864213 89.84765625 143.0390625 C72.26858877 157.06190484 54.06685227 161.26722747 32.14355469 161.12963867 C30.24033115 161.12879103 28.33710664 161.12927021 26.43388367 161.13096619 C21.30037311 161.13182221 16.1670755 161.11426038 11.03361416 161.09324431 C5.65647415 161.07441169 0.27932854 161.0727219 -5.09783936 161.06916809 C-15.2654107 161.05986691 -25.43288455 161.03527932 -35.60041308 161.00511962 C-47.18207757 160.97151548 -58.76374687 160.95507451 -70.34544802 160.94003332 C-94.15613384 160.90872797 -117.96673332 160.85600513 -141.77734375 160.7890625 C-140.81609123 159.50353556 -139.85430963 158.21840422 -138.89230347 156.93344116 C-138.35676786 156.21774145 -137.82123226 155.50204174 -137.26946831 154.76465416 C-135.69638577 152.68187312 -134.0783915 150.64794546 -132.41015625 148.640625 C-131.83885986 147.95073486 -131.26756348 147.26084473 -130.67895508 146.55004883 C-130.09267334 145.84517334 -129.5063916 145.14029785 -128.90234375 144.4140625 C-127.65837043 142.91055635 -126.41487742 141.40665268 -125.171875 139.90234375 C-124.58229004 139.18900879 -123.99270508 138.47567383 -123.38525391 137.74072266 C-119.28564214 132.76466793 -115.28188271 127.71386733 -111.30859375 122.63671875 C-105.20861242 114.84365866 -99.01873565 107.1316933 -92.765625 99.4609375 C-90.42012842 96.58293796 -88.09132828 93.69250414 -85.77734375 90.7890625 C-82.92518973 87.21035977 -80.04394265 83.65662947 -77.15258789 80.10961914 C-72.49578742 74.39656767 -67.87106901 68.66482982 -63.33984375 62.8515625 C-58.65662777 56.84615845 -53.82652918 50.97056179 -48.96899414 45.10571289 C-44.8891465 40.16894662 -40.90519134 35.16863794 -36.97412109 30.11303711 C-32.63969263 24.5616896 -28.15077243 19.14056611 -23.63476562 13.73632812 C-23.07595703 13.06408203 -22.51714844 12.39183594 -21.94140625 11.69921875 C-21.20591553 10.81955444 -21.20591553 10.81955444 -20.45556641 9.92211914 C-18.76649102 7.94286441 -18.76649102 7.94286441 -17.951828 6.01477051 C-14.07455208 -1.35045643 -7.50510554 -0.15326504 0 0 Z " fill="#FEAD00" transform="translate(343.77734375,487.2109375)"/>
<path d="M0 0 C0.639375 0.28875 1.27875 0.5775 1.9375 0.875 C14.43522047 5.46599936 28.17969084 5.23595472 41 2 C42.99810662 1.65549886 44.99722415 1.31622777 47 1 C45.46378109 9.03769105 43.67099526 17.01415003 41.85597038 24.99225426 C41.32904543 27.30920012 40.80398747 29.62656213 40.2794342 31.94404602 C38.7894844 38.52556438 37.29694311 45.1064921 35.80151367 51.68676758 C34.88261641 55.73075275 33.9664326 59.77534491 33.05191231 63.82032204 C32.70490017 65.35266278 32.35685709 66.88477046 32.0077343 68.4166317 C31.51945656 70.55933176 31.03463442 72.70278773 30.55053711 74.84643555 C30.27455185 76.06203659 29.99856659 77.27763763 29.71421814 78.53007507 C28.99811844 82.00914129 28.46485453 85.47932125 28 89 C28.32871094 88.27296875 28.65742187 87.5459375 28.99609375 86.796875 C32.803657 78.74836732 37.38946468 71.89881132 43 65 C43.72316406 64.09894531 44.44632813 63.19789063 45.19140625 62.26953125 C50.8067748 55.62953373 58.08384183 48.5466805 67 47 C72.86877339 46.6151624 76.72911897 47.06047019 82 50 C90.93488671 58.43850412 90.066339 72.86567287 90.4375 84.1875 C90.31689804 99.25576678 90.31689804 99.25576678 95 113 C103.23960335 112.82468929 107.90031016 108.06646193 113.55078125 102.4765625 C120.3149661 95.31206929 125.4570133 87.69771583 130.1484375 79.06640625 C138.35088931 63.99649801 147.37848641 53.19688068 164.32421875 47.66015625 C173.32058812 45.44061402 181.53065444 47.56865268 190 51 C190.70382812 51.56074219 191.40765625 52.12148438 192.1328125 52.69921875 C193.89876781 54.22147576 193.89876781 54.22147576 196.01953125 53.84765625 C198.15692957 52.93283291 199.81664239 51.81416881 201.6875 50.4375 C206.12415018 47.52986486 209.82879855 47.46133318 215 48 C214.81824219 48.54785156 214.63648438 49.09570312 214.44921875 49.66015625 C208.68011561 67.85501999 204.16065195 91.18432295 210 110 C211.90288032 112.31476136 211.90288032 112.31476136 215.125 112.375 C228.2950766 111.10047646 239.75954194 98.43092848 248 89 C253.41588561 82.33961302 258.73516526 75.46346079 263 68 C265.4375 68.625 265.4375 68.625 268 70 C269.040744 73.42235351 269.30631035 75.28563286 267.8828125 78.60546875 C255.78101802 96.3816602 240.05652527 116.76090966 220 126 C219.22269531 126.3609375 218.44539063 126.721875 217.64453125 127.09375 C212.07639247 129.00188618 205.12564749 129.44587775 199.703125 126.9375 C194.32237904 122.70648608 192.60227235 117.36441794 191.43359375 110.8359375 C190.93017354 106.38225596 190.89061203 102.03849761 190.9375 97.5625 C190.94201172 96.73556641 190.94652344 95.90863281 190.95117188 95.05664062 C190.96284189 93.03772854 190.98077282 91.01885426 191 89 C190.69449219 89.63164063 190.38898438 90.26328125 190.07421875 90.9140625 C181.50057192 107.67493828 167.20726081 125.33128574 149.9375 133.4375 C140.42532619 135.25898009 140.42532619 135.25898009 135.75 132.83203125 C129.70293652 128.50793622 126.96681334 124.15559123 125.66992188 116.87304688 C125.55197266 116.15181641 125.43402344 115.43058594 125.3125 114.6875 C125.18294922 113.94693359 125.05339844 113.20636719 124.91992188 112.44335938 C124.6041294 110.63047666 124.30079417 108.81543149 124 107 C123.56171875 107.54527344 123.1234375 108.09054687 122.671875 108.65234375 C115.51095942 117.16684703 105.86120651 126.86628681 94.34375 128.33984375 C89.67840091 128.5969396 86.74050817 128.39044976 82.5625 126.1875 C72.38324055 115.71489013 73.70956166 95.71261291 73.42895508 82.28881836 C73.27162623 76.23774353 72.99372689 70.74543593 71 65 C68.12262918 62.64900152 68.12262918 62.64900152 64.5625 63.1875 C61.111841 63.9744924 59.62556681 64.76340605 57 67 C56.34 67 55.68 67 55 67 C54.7421875 67.58136719 54.484375 68.16273438 54.21875 68.76171875 C52.89785509 71.18759306 51.4133848 72.82461866 49.5 74.8125 C38.2697712 87.27927024 21.7811969 109.47857403 21.6875 126.8125 C21.4921875 129.078125 21.4921875 129.078125 21 131 C17.88392812 133.391404 15.67154466 133.9078272 11.8125 134.4375 C9 134 9 134 7.125 132.5 C3.58789654 124.63977009 7.24466828 114.50804676 8.84375 106.4140625 C9.13591473 104.90584658 9.42736648 103.39749239 9.71813965 101.88900757 C10.48110872 97.93975057 11.25261624 93.99221282 12.02630615 90.04504395 C13.26684611 83.70727701 14.4933908 77.36678168 15.72163391 71.02662277 C16.15147301 68.81365616 16.58440785 66.6013135 17.01794434 64.3890686 C17.28087819 63.04014763 17.54377879 61.69122017 17.80664062 60.34228516 C18.03758423 59.16284332 18.26852783 57.98340149 18.50646973 56.76821899 C19.0585056 54.14048606 19.0585056 54.14048606 19 52 C1.18 52.33 -16.64 52.66 -35 53 C-35.969375 57.475625 -36.93875 61.95125 -37.9375 66.5625 C-38.39370728 68.65960327 -38.39370728 68.65960327 -38.85913086 70.79907227 C-39.10026611 71.91854248 -39.34140137 73.0380127 -39.58984375 74.19140625 C-39.83597412 75.32779541 -40.08210449 76.46418457 -40.33569336 77.63500977 C-41.64595483 84.27203064 -42.23214854 90.69333411 -42.3125 97.4375 C-42.34150391 98.24509766 -42.37050781 99.05269531 -42.40039062 99.88476562 C-42.46203053 105.76900542 -41.24942066 110.06408584 -38 115 C-35.3069252 117.6930748 -33.76495887 117.39344456 -30 117.5 C-21.81477734 117.35544861 -16.62730944 114.58089049 -10.86328125 108.890625 C-8.60836106 106.38414171 -6.51196714 104.02393428 -5 101 C-3.68 101.66 -2.36 102.32 -1 103 C-0.61070502 109.48824968 -1.57487439 113.15764848 -5.81640625 118.12890625 C-14.35637625 127.15774752 -23.7731666 133.80171742 -36.4375 134.375 C-42.74856534 134.21938469 -47.18824137 132.77341647 -51.71875 128.3046875 C-59.49722916 118.88662695 -59.58107117 107.64333237 -60 96 C-60.40089844 96.47308594 -60.80179688 96.94617188 -61.21484375 97.43359375 C-76.77615156 115.53552324 -97.22226541 132.38916484 -121.98046875 134.30859375 C-131.25253336 134.70271318 -138.40848467 133.75669436 -145.75 127.75 C-155.20947885 116.18841474 -156.17050507 104.50408462 -155 90 C-152.3483992 75.56703518 -143.34250377 63.22394343 -131.8984375 54.375 C-129.9799634 53.09092172 -128.07115882 52.01697619 -126 51 C-125.38511719 50.68289063 -124.77023437 50.36578125 -124.13671875 50.0390625 C-115.79054818 46.50612039 -104.38669578 46.42482903 -95.75390625 48.94921875 C-91.12370112 51.13016233 -87.72587771 53.57044873 -85 58 C-84.5875 58.61875 -84.175 59.2375 -83.75 59.875 C-81.94298821 64.99486673 -82.80279232 70.00946126 -84.84375 74.89453125 C-91.14321818 86.36552229 -102.93630693 92.99773705 -115 97 C-116.60294922 97.54333984 -116.60294922 97.54333984 -118.23828125 98.09765625 C-122.59202466 99.14201215 -126.48787904 99.22413466 -130.9375 99.125 C-131.71673828 99.11597656 -132.49597656 99.10695313 -133.29882812 99.09765625 C-135.19935447 99.07433691 -137.09972008 99.03847586 -139 99 C-138.54678672 101.06363112 -138.08720894 103.12586507 -137.625 105.1875 C-137.36976563 106.33605469 -137.11453125 107.48460937 -136.8515625 108.66796875 C-135.68717644 114.17751468 -135.68717644 114.17751468 -132.1875 118.1875 C-131.465625 118.455625 -130.74375 118.72375 -130 119 C-128.948125 119.556875 -128.948125 119.556875 -127.875 120.125 C-117.95480242 123.14419057 -107.91580416 119.8687191 -98.890625 115.4921875 C-81.82438471 105.98638009 -60.31030811 88.31424021 -54.6875 68.9375 C-54.11447803 66.62758478 -53.55148055 64.31515263 -53 62 C-52.43116772 60.03740553 -51.84956598 58.07842465 -51.25 56.125 C-50.88648438 54.92230469 -50.88648438 54.92230469 -50.515625 53.6953125 C-50.34546875 53.13585937 -50.1753125 52.57640625 -50 52 C-50.71542969 52.144375 -51.43085937 52.28875 -52.16796875 52.4375 C-59.85699952 53.86986796 -67.18950511 54.2267563 -75 54 C-74.12980384 49.49257945 -72.05820035 47.35656136 -69 44 C-66.59940183 42.79970092 -65.10639351 42.88540257 -62.4296875 42.90234375 C-61.53378906 42.90556641 -60.63789062 42.90878906 -59.71484375 42.91210938 C-58.30912109 42.92467773 -58.30912109 42.92467773 -56.875 42.9375 C-55.93011719 42.94201172 -54.98523438 42.94652344 -54.01171875 42.95117188 C-51.67441613 42.96297643 -49.33723939 42.97944241 -47 43 C-46.887771 42.32477295 -46.77554199 41.6495459 -46.65991211 40.95385742 C-45.13020995 32.0298356 -42.38659627 24.54626117 -36 18 C-32.47717965 15.65938738 -29.4069819 15.79186036 -25.25 15.875 C-24.07953125 15.89304687 -22.9090625 15.91109375 -21.703125 15.9296875 C-20.36507812 15.96449219 -20.36507812 15.96449219 -19 16 C-20.29050654 19.46785408 -21.81757851 22.45168575 -23.8125 25.5625 C-27.69169346 31.89950184 -27.69169346 31.89950184 -32 43 C-5.27 42.505 -5.27 42.505 22 42 C22.66 38.04 23.32 34.08 24 30 C24.50656599 27.80410612 25.03881415 25.61349292 25.625 23.4375 C26.43011695 20.4362472 27 18.11444207 27 15 C26.30777344 15.15984375 25.61554688 15.3196875 24.90234375 15.484375 C18.43594981 16.63318254 11.60989477 16.89996371 5.375 14.75 C2.25326157 12.44977169 0.40933635 10.88811001 -0.43359375 7 C-0.72117287 5.01179868 -0.8685517 3.00458663 -1 1 C-0.67 0.67 -0.34 0.34 0 0 Z " fill="#FEA903" transform="translate(929,459)"/>
<path d="M0 0 C11.22 0 22.44 0 34 0 C39.25 9.625 39.25 9.625 41.02172852 12.87426758 C43.72869176 17.83853098 46.43774914 22.80162378 49.15234375 27.76171875 C49.6618457 28.6935498 50.17134766 29.62538086 50.69628906 30.58544922 C51.64655598 32.32324906 52.59764054 34.06060223 53.54980469 35.79736328 C58.11787824 44.15586188 62.54164878 52.57866991 67 61 C67 40.87 67 20.74 67 0 C75.58 0 84.16 0 93 0 C93 34.65 93 69.3 93 105 C82.11 105 71.22 105 60 105 C57.6075 100.50375 55.215 96.0075 52.75 91.375 C47.22500111 81.00024223 41.66901946 70.64491522 35.98339844 60.35693359 C32.47329281 53.97480665 29.26583686 47.53167373 26 41 C26 62.12 26 83.24 26 105 C17.42 105 8.84 105 0 105 C0 70.35 0 35.7 0 0 Z " fill="#020100" transform="translate(313,523)"/>
<path d="M0 0 C4.82062106 4.80726753 7.73429017 11.03422629 10.4375 17.1875 C10.84798584 18.1038623 11.25847168 19.02022461 11.68139648 19.96435547 C16.21409558 30.23033759 20.35798308 40.65891809 24.54562378 51.06893921 C35.26541871 81.15049301 35.26541871 81.15049301 53 107 C55.097413 107.69583289 55.097413 107.69583289 57 108 C60.18855295 100.70883548 62.32600936 93.44471655 64.0625 85.6875 C64.31854004 84.55030518 64.57458008 83.41311035 64.83837891 82.24145508 C72.73503474 47.11227672 72.73503474 47.11227672 64.36328125 13.125 C63.91339844 12.42375 63.46351563 11.7225 63 11 C67.41517569 7.10425675 71.08532404 5 77.0625 5 C81.10947837 6.37769476 82.61202672 8.52038179 85 12 C88.8147673 22.67150195 85.58899512 37.1873217 83.8125 48.0625 C83.58170458 49.51660138 83.35091033 50.97070295 83.12011719 52.42480469 C80.3359902 69.72796983 76.62330966 86.54617422 71.5 103.3125 C71.13229492 104.52325195 70.76458984 105.73400391 70.38574219 106.98144531 C64.61675024 125.2983773 64.61675024 125.2983773 60.08789062 128.2434082 C56.71991407 129.4638665 53.49700298 129.5238701 50 129 C38.37505366 123.42971321 33.05426676 111.08873051 28 100 C27.52401367 98.96198242 27.04802734 97.92396484 26.55761719 96.85449219 C18.71842127 79.7041116 11.25848048 62.40403205 4 45 C1.55413534 51.73243158 -0.09214276 58.48324853 -1.5 65.5 C-1.71358154 66.55952881 -1.92716309 67.61905762 -2.1472168 68.71069336 C-2.57285829 70.83503869 -2.99569559 72.95994809 -3.41552734 75.08544922 C-3.91480469 77.57516222 -4.44339487 80.05515934 -4.98828125 82.53515625 C-7.97722394 96.74280049 -8.0965361 111.64549073 -6 126 C-11.28419941 129.42758881 -16.85054009 130.02490999 -23 129 C-27.88531115 121.67203328 -24.54473902 110.94748076 -22.9609375 102.7578125 C-22.64337741 101.17132158 -22.32303284 99.58538564 -22 98 C-21.8443457 97.23397461 -21.68869141 96.46794922 -21.52832031 95.67871094 C-19.36739075 85.19324232 -16.9535371 74.76877817 -14.48828125 64.3515625 C-14.03453179 62.42693349 -13.58083768 60.50229143 -13.12719727 58.57763672 C-12.22387114 54.74633629 -11.31001815 50.91774587 -10.39038086 47.09033203 C-6.12028558 32.39473946 -6.12028558 32.39473946 -7.109375 17.625 C-7.65078125 16.75875 -8.1921875 15.8925 -8.75 15 C-9.28109375 14.113125 -9.8121875 13.22625 -10.359375 12.3125 C-11.78228703 10.30687162 -13.19194665 8.65556692 -15 7 C-13.96008872 3.98425729 -13.03085171 3.02008949 -10.3125 1.25 C-6.37213068 -0.23693182 -4.16263252 -0.81765996 0 0 Z " fill="#FEA903" transform="translate(528,463)"/>
<path d="M0 0 C9.64097394 5.13116285 13.89668209 24.98080759 16.92822266 34.76586914 C18.59723369 40.36280151 20.06641192 45.99576555 21.375 51.6875 C21.54281982 52.40534668 21.71063965 53.12319336 21.88354492 53.86279297 C22.92422445 58.66238675 23.14328185 63.0898411 23 68 C24.69489566 66.35646481 26.35193846 64.68989051 28 63 C28.50789062 62.49984375 29.01578125 61.9996875 29.5390625 61.484375 C42.30167609 48.05641188 51.50365294 28.11704871 56.2109375 10.34375 C57 8 57 8 59 7 C60.875 7.63671875 60.875 7.63671875 63 8.6875 C63.70125 9.02136719 64.4025 9.35523438 65.125 9.69921875 C67.37250111 11.25842265 68.07563272 12.44354674 69 15 C69 26.99449507 60.68909154 37.59918233 54 47 C53.48872559 47.72171387 52.97745117 48.44342773 52.45068359 49.18701172 C31.01506268 79.28611862 31.01506268 79.28611862 18.9375 85.3125 C18.30714844 85.63863281 17.67679688 85.96476563 17.02734375 86.30078125 C14.59821755 87.13857237 12.55162638 87.11940019 10 87 C9.99613281 85.26943359 9.99613281 85.26943359 9.9921875 83.50390625 C9.74437671 69.96864975 7.04712967 57.65682404 3.62890625 44.59912109 C2.8556994 41.4036397 2.36837396 38.26471424 2 35 C1.34 35 0.68 35 0 35 C-0.23976563 35.6909375 -0.47953125 36.381875 -0.7265625 37.09375 C-2.23169542 40.52877727 -4.19580919 43.47035186 -6.375 46.5 C-7.02940063 47.412052 -7.02940063 47.412052 -7.69702148 48.3425293 C-12.21811859 54.50534331 -17.29054153 60.07274228 -22.60546875 65.55419922 C-23.87942597 66.8749931 -25.12861007 68.21956713 -26.375 69.56640625 C-34.99381022 78.66232918 -45.28396886 85.93016378 -58.0625 86.4375 C-63.6208241 86.26927834 -66.67097363 85.51733393 -71 82 C-76.8338604 74.28713548 -76.6643096 65.97878639 -75.63720703 56.73486328 C-75.15406222 53.33603599 -74.620922 49.94974485 -74.0625 46.5625 C-73.78889648 44.82709961 -73.78889648 44.82709961 -73.50976562 43.05664062 C-72.16900209 34.65614764 -72.16900209 34.65614764 -71.4453125 31.84643555 C-70.75525398 28.98518963 -70.90816198 26.18380246 -70.9375 23.25 C-70.94652344 22.07953125 -70.95554687 20.9090625 -70.96484375 19.703125 C-70.97644531 18.81109375 -70.98804688 17.9190625 -71 17 C-66.79486996 15.53581823 -63.481339 14.41547752 -59 15 C-56.3192617 17.07147959 -55.14294872 18.28840969 -54.46875 21.64453125 C-54.55551244 30.44007316 -55.92122162 38.66144665 -57.56738281 47.28466797 C-59.15324479 55.93833105 -59.42362134 64.2333917 -59 73 C-46.90121347 73.53972282 -38.00420029 66.11135954 -29.453125 58.3359375 C-23.79128142 52.9809089 -18.82052549 47.11082662 -14 41 C-13.5035498 40.38237793 -13.00709961 39.76475586 -12.49560547 39.12841797 C-11.03276852 37.29213128 -9.60503228 35.43390456 -8.1875 33.5625 C-7.74825195 33.00771973 -7.30900391 32.45293945 -6.85644531 31.88134766 C-4.73279551 28.97332596 -4.00263709 27.19294689 -3.953125 23.5703125 C-5.21078754 19.28112012 -7.11905067 16.02070565 -9.5625 12.3125 C-14 5.51820941 -14 5.51820941 -14 1 C-9.72365325 -1.13817337 -4.6237872 -0.68050482 0 0 Z " fill="#FEA903" transform="translate(702,505)"/>
<path d="M0 0 C0.66 0 1.32 0 2 0 C3.61130379 3.22260758 3.45154329 6.50544761 3 10 C-0.06046391 16.37596648 -5.65510789 20.56647481 -12.0625 23.3125 C-17.72925959 24.63876288 -23.21542951 25.12348698 -29.02734375 25.09765625 C-30.31318359 25.09443359 -31.59902344 25.09121094 -32.92382812 25.08789062 C-34.26171945 25.07953802 -35.59961007 25.07107311 -36.9375 25.0625 C-38.30273274 25.05747659 -39.66796726 25.05291517 -41.03320312 25.04882812 C-44.35551457 25.03708851 -47.67773408 25.02066679 -51 25 C-51.19577637 26.69769531 -51.19577637 26.69769531 -51.39550781 28.4296875 C-51.97245033 33.03310806 -52.79664769 37.57018841 -53.671875 42.125 C-53.83453857 42.9811087 -53.99720215 43.83721741 -54.16479492 44.7192688 C-54.69043751 47.4800473 -55.22006428 50.24004265 -55.75 53 C-56.11492215 54.91129303 -56.47983094 56.82258862 -56.84472656 58.73388672 C-58.72484067 68.55089846 -60.659092 78.3505126 -62.75 88.125 C-64.42240302 95.97307067 -65.91112605 103.83791583 -67.25 111.75 C-67.41338867 112.70277832 -67.57677734 113.65555664 -67.74511719 114.63720703 C-68.85814988 121.40439833 -69.51764907 128.16020384 -70 135 C-75.30005846 137.23160356 -80.33053029 137.4591096 -86 137 C-87.62134982 135.37865018 -87.20427936 133.64639887 -87.24072266 131.40234375 C-87.16480146 123.95457886 -85.65142523 116.82239631 -84.1484375 109.5625 C-83.84807625 108.07365787 -83.54858586 106.58463982 -83.24990845 105.09545898 C-82.62239067 101.9776642 -81.98809785 98.86135949 -81.34814453 95.74609375 C-80.5459428 91.84097571 -79.75487402 87.93372352 -78.96827316 84.0254364 C-75.96676916 69.11582878 -72.88218694 54.22590023 -69.6015625 39.375 C-69.22757828 37.67645874 -69.22757828 37.67645874 -68.84603882 35.94360352 C-68.61663605 34.91807373 -68.38723328 33.89254395 -68.15087891 32.8359375 C-67.95168854 31.94438965 -67.75249817 31.0528418 -67.54727173 30.13427734 C-67 28 -67 28 -66 26 C-70.46175649 26.26508922 -74.92341994 26.53168435 -79.38500977 26.79956055 C-80.89670493 26.89012441 -82.40842305 26.98030604 -83.92016602 27.07006836 C-93.28781601 27.6265932 -102.64604493 28.24085324 -112 29 C-111.37607924 25.59774751 -110.78567664 23.19660243 -108.75 20.375 C-108.35296875 19.80523437 -107.9559375 19.23546875 -107.546875 18.6484375 C-104.58222102 15.48913452 -101.93399195 14.10422174 -97.60768127 13.62145996 C-96.31087936 13.61940552 -95.01407745 13.61735107 -93.67797852 13.61523438 C-92.59870842 13.60717522 -92.59870842 13.60717522 -91.49763489 13.59895325 C-89.93990825 13.58919646 -88.38212739 13.58622475 -86.82437325 13.58930969 C-84.34570391 13.59381029 -81.86774031 13.57971972 -79.3891449 13.56091309 C-74.11360817 13.52417667 -68.83814568 13.51045491 -63.5625 13.5 C-57.4746416 13.48785583 -51.38712682 13.46587817 -45.29942131 13.41999817 C-42.88123749 13.40660896 -40.46350849 13.41056783 -38.04530334 13.41540527 C-20.34050696 13.51774398 -20.34050696 13.51774398 -5 6 C-3.28682087 4.03587632 -1.65072837 2.01755689 0 0 Z " fill="#FEA802" transform="translate(1348,455)"/>
<path d="M0 0 C4.93059666 2.36818052 9.06517243 5.35464073 13.078125 9.05078125 C11.77773598 12.56400409 10.24402286 15.55843679 8.171875 18.67578125 C7.31057983 19.97394775 7.31057983 19.97394775 6.43188477 21.29833984 C5.51427368 22.66079834 5.51427368 22.66079834 4.578125 24.05078125 C3.950271 24.98615723 3.32241699 25.9215332 2.67553711 26.88525391 C-16.70511703 55.53964624 -16.70511703 55.53964624 -28.921875 60.05078125 C-32.796875 60.11328125 -32.796875 60.11328125 -35.921875 59.05078125 C-40.98882082 53.98383543 -40.22040803 47.27469987 -40.24316406 40.59643555 C-40.14018584 33.21888058 -38.74257234 26.891218 -35.921875 20.05078125 C-35.64472656 19.31859375 -35.36757812 18.58640625 -35.08203125 17.83203125 C-32.06999918 10.83634387 -26.52298004 4.26344933 -20.0546875 0.2890625 C-13.72438452 -2.21306474 -6.45698479 -2.09765682 0 0 Z " fill="#FEFEFC" transform="translate(1108.921875,517.94921875)"/>
<path d="M0 0 C2.93423195 1.79646854 4.47205355 2.9441071 6 6 C6.54871343 12.36507575 5.71834931 16.73938081 2 22 C-4.0385954 28.99664178 -12.93725337 33.3443059 -22 35 C-24.08234592 35.06743348 -26.16668557 35.08514472 -28.25 35.0625 C-29.32765625 35.05347656 -30.4053125 35.04445313 -31.515625 35.03515625 C-32.33546875 35.02355469 -33.1553125 35.01195312 -34 35 C-33.52311221 28.90264895 -32.17993085 24.35148664 -29.375 18.9375 C-29.01599609 18.2372168 -28.65699219 17.53693359 -28.28710938 16.81542969 C-24.41813939 9.53125781 -19.83389615 4.10008271 -12.1796875 0.66015625 C-8.10370302 -0.5743265 -4.18845387 -0.73405893 0 0 Z " fill="#FEFDFB" transform="translate(825,515)"/>
<path d="M0 0 C1.485 0.495 1.485 0.495 3 1 C-2.29997499 12.26577599 -10.88700795 20.40172581 -22 26 C-24.48596424 26.71950785 -26.39772227 26.94217161 -29 27 C-31.47717167 23.28424249 -31.30345742 21.40013262 -31 17 C-30.38671875 14.36328125 -30.38671875 14.36328125 -29 12 C-26.12890625 11.06640625 -26.12890625 11.06640625 -22.5625 10.5625 C-14.69181644 9.14690943 -8.07980565 6.37223788 -1.8828125 1.25 C-1.26148438 0.8375 -0.64015625 0.425 0 0 Z " fill="#FEA703" transform="translate(668,479)"/>
<path d="M0 0 C1.09415339 -0.00256327 1.09415339 -0.00256327 2.21041089 -0.00517833 C4.66106904 -0.00847951 7.11145498 0.00254068 9.56208801 0.01345825 C11.31620273 0.01402223 13.07031793 0.01370607 14.82443237 0.01257324 C19.59273885 0.01199821 24.3609452 0.02377688 29.12922835 0.03772116 C34.11004237 0.05020342 39.09085855 0.05139704 44.07168579 0.05377197 C53.50642177 0.05999411 62.94111153 0.07641486 72.37582713 0.09647095 C83.11571008 0.11880713 93.8555952 0.12981764 104.59549558 0.13986182 C126.69091224 0.16078045 148.78628726 0.19597068 170.88166809 0.24050903 C170.22166809 1.56050903 169.56166809 2.88050903 168.88166809 4.24050903 C168.55166809 3.58050903 168.22166809 2.92050903 167.88166809 2.24050903 C109.14166809 2.24050903 50.40166809 2.24050903 -10.11833191 2.24050903 C-6.37979082 -0.25185169 -4.46914626 -0.00629014 0 0 Z " fill="#FEAB17" transform="translate(256.1183319091797,355.7594909667969)"/>
<path d="M0 0 C0.33 0.66 0.66 1.32 1 2 C7.93 2 14.86 2 22 2 C22 2.33 22 2.66 22 3 C13.92046224 4.81344335 6.26747851 5.23658921 -2 5 C-1.125 1.125 -1.125 1.125 0 0 Z " fill="#FEA925" transform="translate(856,508)"/>
<path d="M0 0 C1.75570312 0.02707031 1.75570312 0.02707031 3.546875 0.0546875 C4.88492188 0.08949219 4.88492188 0.08949219 6.25 0.125 C5.59 1.775 4.93 3.425 4.25 5.125 C2.93 4.795 1.61 4.465 0.25 4.125 C0.25 3.135 0.25 2.145 0.25 1.125 C-0.8225 1.475625 -1.895 1.82625 -3 2.1875 C-7.67307692 3.35576923 -7.67307692 3.35576923 -10.75 2.125 C-7.15537669 -0.13498595 -4.18404325 -0.08368087 0 0 Z " fill="#FEA310" transform="translate(903.75,474.875)"/>
<path d="M0 0 C0 0.33 0 0.66 0 1 C-0.79664063 1.18175781 -1.59328125 1.36351562 -2.4140625 1.55078125 C-7.97591755 2.87019942 -13.04724965 4.11089563 -18 7 C-18.33 6.01 -18.66 5.02 -19 4 C-16.96185767 3.32263519 -14.91929445 2.65856466 -12.875 2 C-11.73804688 1.62875 -10.60109375 1.2575 -9.4296875 0.875 C-6.12104059 0.03088051 -3.39471984 -0.16509276 0 0 Z " fill="#FEA30D" transform="translate(245,358)"/>
<path d="M0 0 C0.33 0.66 0.66 1.32 1 2 C-0.28419041 3.67243402 -1.57757185 5.33781447 -2.875 7 C-3.59429687 7.928125 -4.31359375 8.85625 -5.0546875 9.8125 C-5.69664062 10.534375 -6.33859375 11.25625 -7 12 C-7.66 12 -8.32 12 -9 12 C-7.55575365 8.76138697 -5.74227753 6.38030837 -3.375 3.75 C-2.74335938 3.04359375 -2.11171875 2.3371875 -1.4609375 1.609375 C-0.97882813 1.07828125 -0.49671875 0.5471875 0 0 Z " fill="#FEA008" transform="translate(248,591)"/>
<path d="M0 0 C2.3177115 2.84446411 4.0209951 5.4399822 5 9 C4.125 11.3125 4.125 11.3125 3 13 C2.67 13 2.34 13 2 13 C1.66127487 11.58461283 1.32925376 10.16762037 1 8.75 C0.814375 7.96109375 0.62875 7.1721875 0.4375 6.359375 C0 4 0 4 0 0 Z " fill="#ECB203" transform="translate(338,562)"/>
<path d="M0 0 C0.99 0.33 1.98 0.66 3 1 C2.01 2.98 1.02 4.96 0 7 C-0.66 6.34 -1.32 5.68 -2 5 C-4.06874034 4.3574765 -4.06874034 4.3574765 -6 4 C-3.1875 1.9375 -3.1875 1.9375 0 0 Z " fill="#FDA312" transform="translate(668,479)"/>
<path d="M0 0 C2.4375 0.625 2.4375 0.625 5 2 C6 4.875 6 4.875 6 8 C4.5625 10.375 4.5625 10.375 3 12 C3.09765625 9.98177083 3.1953125 7.96354167 3.29296875 5.9453125 C3.19628906 5.30335938 3.09960938 4.66140625 3 4 C2.01 3.34 1.02 2.68 0 2 C0 1.34 0 0.68 0 0 Z " fill="#FEAA23" transform="translate(1192,527)"/>
<path d="M0 0 C1.32 0.66 2.64 1.32 4 2 C-0.5 6.875 -0.5 6.875 -5 8 C-3.35 5.36 -1.7 2.72 0 0 Z " fill="#FDA110" transform="translate(924,560)"/>
<path d="M0 0 C0.33 0 0.66 0 1 0 C1.19477739 1.62414378 1.38059458 3.24936423 1.5625 4.875 C1.66691406 5.77992188 1.77132812 6.68484375 1.87890625 7.6171875 C2 10 2 10 1 12 C-1.44576827 8.33134759 -1.23607254 6.32799657 -1 2 C-0.67 1.34 -0.34 0.68 0 0 Z " fill="#FEA00F" transform="translate(638,494)"/>
<path d="M0 0 C0.66 0.33 1.32 0.66 2 1 C0.25 3.9375 0.25 3.9375 -2 7 C-3.32 7.33 -4.64 7.66 -6 8 C-4.02 5.36 -2.04 2.72 0 0 Z " fill="#FEA60E" transform="translate(286,543)"/>
<path d="M0 0 C0.66 0.33 1.32 0.66 2 1 C0.02 5.455 0.02 5.455 -2 10 C-2.95514044 6.17943822 -3.08352672 4.64458987 -2 1 C-1.34 0.67 -0.68 0.34 0 0 Z " fill="#FEF7E3" transform="translate(959,540)"/>
<path d="M0 0 C2 4 2 4 1.125 7.25 C0.75375 8.1575 0.3825 9.065 0 10 C-0.66 10 -1.32 10 -2 10 C-1.34 6.7 -0.68 3.4 0 0 Z " fill="#FEAA1A" transform="translate(590,556)"/>
<path d="M0 0 C0.33 0.99 0.66 1.98 1 3 C-0.65 4.65 -2.3 6.3 -4 8 C-4 4.09161134 -2.49432124 2.88405893 0 0 Z " fill="#FEA107" transform="translate(217,629)"/>
<path d="M0 0 C0.66 0.33 1.32 0.66 2 1 C0.02 3.31 -1.96 5.62 -4 8 C-4.66 7.67 -5.32 7.34 -6 7 C-4.02 4.69 -2.04 2.38 0 0 Z " fill="#FEA10D" transform="translate(687,547)"/>
<path d="M0 0 C0.66 0 1.32 0 2 0 C2.33 0.99 2.66 1.98 3 3 C-1.625 6 -1.625 6 -5 6 C-3.38405168 3.95880212 -1.7143618 1.95927063 0 0 Z " fill="#FCA218" transform="translate(1348,455)"/>
</svg>
