<svg width="199" height="43" viewBox="0 0 199 43" fill="none" xmlns="http://www.w3.org/2000/svg">
<path d="M17.0833 4.02019H37.3444L18.8924 24.3059H17.0833C1.16398 24.3059 2.973 4.02019 17.0833 4.02019Z" fill="#FFA500"/>
<path d="M26.073 39.6091H5.812L24.264 19.3234H26.073C41.9924 19.3234 40.1834 39.6091 26.073 39.6091Z" fill="#FFA500"/>
<path d="M17.0833 4.02019H37.3444L18.8924 24.3059H17.0833C1.16398 24.3059 2.973 4.02019 17.0833 4.02019Z" stroke="#FFA500" stroke-width="0.5"/>
<path d="M26.073 39.6091H5.812L24.264 19.3234H26.073C41.9924 19.3234 40.1834 39.6091 26.073 39.6091Z" stroke="#FFA500" stroke-width="0.5"/>
<path d="M51.5143 31.6208C50.0429 34.199 48.5553 36.2172 47.0514 37.6755C45.5475 39.1273 44.1966 39.8533 42.9987 39.8533C42.2695 39.8533 41.6803 39.6156 41.2311 39.1404C40.7884 38.6651 40.567 38.0401 40.567 37.2654C40.567 36.9724 40.6321 36.5069 40.7623 35.8689L40.9772 34.7947C41.2962 33.2452 41.4557 32.1579 41.4557 31.5329C41.4557 31.1618 41.345 30.8591 41.1237 30.6247C41.97 30.4294 42.5006 30.3318 42.7155 30.3318C43.1972 30.3318 43.4381 30.6703 43.4381 31.3474C43.4381 31.8487 43.3437 32.5681 43.1549 33.5056L42.7741 35.4099C42.5853 36.3279 42.4909 36.9236 42.4909 37.197C42.4909 38.0043 42.8327 38.4079 43.5162 38.4079C44.33 38.4079 45.414 37.7243 46.7682 36.3572C48.1224 34.9835 49.4342 33.2452 50.7037 31.1423L51.5143 31.6208ZM42.8229 26.699L42.9596 26.7087C43.3958 26.6892 44.0208 26.4711 44.8346 26.0544C45.6549 25.6312 46.2962 25.2016 46.7584 24.7654C46.472 25.6638 45.9642 26.4158 45.235 27.0212C44.1282 27.9457 43.3795 28.4079 42.9889 28.4079C42.7285 28.4079 42.5983 28.2484 42.5983 27.9294C42.5983 27.4737 42.6731 27.0635 42.8229 26.699ZM51.6022 39.8728C51.7454 39.2999 51.817 38.8051 51.817 38.3884C51.817 36.7803 51.4752 35.003 50.7916 33.0564C50.108 31.1098 49.3073 29.6417 48.3893 28.6521C48.9557 28.3656 49.4635 28.2224 49.9127 28.2224C50.6289 28.2224 51.3515 29.1632 52.0807 31.0447C52.8164 32.9197 53.3437 35.1885 53.6627 37.8513C54.8021 36.406 55.7428 34.9151 56.485 33.3786C57.2272 31.8422 57.6471 30.5173 57.7448 29.404C58.7213 29.7947 59.2096 30.2374 59.2096 30.7322C59.2096 31.1749 58.7409 32.1775 57.8034 33.74C56.8724 35.3025 55.86 36.7803 54.7662 38.1736C54.2324 38.8507 53.7832 39.2868 53.4186 39.4822C53.054 39.6775 52.4485 39.8077 51.6022 39.8728ZM68.4577 33.6423C67.6243 35.3676 66.5957 36.8357 65.3717 38.0466C64.1543 39.251 63.0931 39.8533 62.1881 39.8533C61.498 39.8533 60.9446 39.5473 60.528 38.9353C60.1178 38.3168 59.9127 37.4965 59.9127 36.4743C59.9127 34.4366 60.528 32.643 61.7584 31.0935C62.9954 29.544 64.4244 28.7693 66.0455 28.7693C67.0286 28.7693 68.0931 29.0753 69.2389 29.6872C69.4082 29.0818 70.0983 28.779 71.3092 28.779C71.3873 28.779 71.5143 28.7823 71.6901 28.7888C71.319 29.3552 71.0358 30.1299 70.8405 31.113L70.6744 31.9431C70.4856 32.8676 70.3912 33.9483 70.3912 35.1853C70.3912 36.6111 70.7233 37.324 71.3873 37.324C72.0905 37.324 73.0508 36.738 74.2682 35.5661C75.4922 34.3878 76.6933 32.8904 77.8717 31.074L78.6334 31.6013C77.429 33.7497 76.0521 35.5434 74.5026 36.9822C72.9531 38.4145 71.6217 39.1306 70.5084 39.1306C69.1022 39.1306 68.3991 37.9587 68.3991 35.615C68.3991 35.1267 68.4186 34.4691 68.4577 33.6423ZM68.9166 31.3083C67.5494 30.4164 66.4134 29.9704 65.5084 29.9704C64.5254 29.9704 63.6758 30.5694 62.9596 31.7673C62.2435 32.9587 61.8854 34.3747 61.8854 36.0154C61.8854 37.3305 62.3151 37.988 63.1744 37.988C64.1054 37.988 65.886 35.9437 68.5162 31.8552C68.5488 31.8031 68.6823 31.6208 68.9166 31.3083ZM90.0592 31.6306C88.4837 34.2738 86.8138 36.3572 85.0494 37.8806C83.2851 39.3975 81.6478 40.156 80.1373 40.156C78.8808 40.156 77.8619 39.7263 77.0807 38.8669C76.2994 38.0076 75.9088 36.891 75.9088 35.5173C75.9088 33.7074 76.5827 32.1319 77.9303 30.7908C79.278 29.4431 80.86 28.7693 82.6764 28.7693C83.4121 28.7693 84.0143 28.9125 84.483 29.199C84.9583 29.4789 85.1959 29.837 85.1959 30.2732C85.1959 30.9893 84.5872 31.5264 83.3698 31.8845C83.4349 31.7283 83.4674 31.5785 83.4674 31.4353C83.4674 30.3806 82.9075 29.8533 81.7877 29.8533C80.8177 29.8533 79.9225 30.3969 79.1022 31.4841C78.2884 32.5648 77.8815 33.7497 77.8815 35.0388C77.8815 36.087 78.1517 36.9431 78.692 37.6072C79.2389 38.2647 79.9485 38.5935 80.8209 38.5935C83.2168 38.5935 86.0228 36.1098 89.2389 31.1423L90.0592 31.6306ZM89.6686 35.322C91.6087 30.9535 93.5879 28.7693 95.6061 28.7693C96.4134 28.7693 96.9961 29.1078 97.3541 29.7849C97.7122 30.4555 97.8912 31.546 97.8912 33.0564L97.901 34.2283C97.901 36.2595 98.2005 37.2914 98.7994 37.324C99.2812 37.3435 100.04 36.7641 101.075 35.5857C102.117 34.4073 103.174 32.9262 104.249 31.1423L105.059 31.5915C104.005 33.6814 102.813 35.449 101.485 36.8943C100.163 38.3396 99.0729 39.0622 98.2135 39.0622C97.4127 39.0622 96.8366 38.6879 96.485 37.9392C96.1334 37.1905 95.9577 35.9665 95.9577 34.2673V33.3982C95.9577 31.432 95.6191 30.449 94.942 30.449C93.985 30.449 92.7643 31.7673 91.2799 34.404C89.7825 37.0603 89.0338 38.6358 89.0338 39.1306C89.0338 39.2934 89.0957 39.4529 89.2194 39.6091C88.9264 39.7719 88.5455 39.8533 88.0768 39.8533C87.4974 39.8533 87.2077 39.5961 87.2077 39.0818C87.2077 38.7237 87.4127 37.6397 87.8229 35.8298C87.8359 35.7712 87.9205 35.3513 88.0768 34.5701L90.0787 24.4919C89.6425 24.6547 89.2031 24.7361 88.7604 24.7361C87.4974 24.7361 86.8659 23.9906 86.8659 22.4997C87.4909 22.9685 88.2168 23.2029 89.0436 23.2029C90.209 23.2029 91.3287 22.9685 92.403 22.4997L90.8014 30.5759C90.7819 30.6671 90.4824 31.878 89.903 34.2087C89.8574 34.404 89.7793 34.7751 89.6686 35.322ZM110.723 33.6423C109.89 35.3676 108.861 36.8357 107.637 38.0466C106.42 39.251 105.359 39.8533 104.454 39.8533C103.764 39.8533 103.21 39.5473 102.794 38.9353C102.383 38.3168 102.178 37.4965 102.178 36.4743C102.178 34.4366 102.794 32.643 104.024 31.0935C105.261 29.544 106.69 28.7693 108.311 28.7693C109.294 28.7693 110.359 29.0753 111.505 29.6872C111.674 29.0818 112.364 28.779 113.575 28.779C113.653 28.779 113.78 28.7823 113.956 28.7888C113.585 29.3552 113.301 30.1299 113.106 31.113L112.94 31.9431C112.751 32.8676 112.657 33.9483 112.657 35.1853C112.657 36.6111 112.989 37.324 113.653 37.324C114.356 37.324 115.316 36.738 116.534 35.5661C117.758 34.3878 118.959 32.8904 120.137 31.074L120.899 31.6013C119.695 33.7497 118.318 35.5434 116.768 36.9822C115.219 38.4145 113.887 39.1306 112.774 39.1306C111.368 39.1306 110.665 37.9587 110.665 35.615C110.665 35.1267 110.684 34.4691 110.723 33.6423ZM111.182 31.3083C109.815 30.4164 108.679 29.9704 107.774 29.9704C106.791 29.9704 105.941 30.5694 105.225 31.7673C104.509 32.9587 104.151 34.3747 104.151 36.0154C104.151 37.3305 104.581 37.988 105.44 37.988C106.371 37.988 108.152 35.9437 110.782 31.8552C110.814 31.8031 110.948 31.6208 111.182 31.3083ZM121.436 36.1033C123.747 31.2139 125.824 28.7693 127.667 28.7693C129.105 28.7693 129.825 30.2016 129.825 33.0661L129.844 34.2478C129.844 35.615 129.913 36.5622 130.049 37.0896C130.193 37.6104 130.45 37.8708 130.821 37.8708C131.381 37.8708 132.016 37.4249 132.725 36.5329C133.441 35.641 134.603 33.8474 136.212 31.1521L137.032 31.6306C135.6 34.3324 134.317 36.3376 133.184 37.6462C132.051 38.9548 131.036 39.6091 130.137 39.6091C129.311 39.6091 128.728 39.2087 128.389 38.4079C128.057 37.6072 127.891 36.2204 127.891 34.2478L127.881 33.4079C127.881 32.3402 127.813 31.5915 127.676 31.1618C127.54 30.7257 127.302 30.5076 126.964 30.5076C126.104 30.5076 124.721 32.223 122.813 35.654C122.344 36.4939 122.042 37.0342 121.905 37.2751C121.404 38.1475 121.153 38.779 121.153 39.1697C121.153 39.3259 121.195 39.4757 121.28 39.6189C120.902 39.7751 120.583 39.8533 120.323 39.8533C119.665 39.8533 119.337 39.4887 119.337 38.7595C119.337 38.5512 119.421 37.6137 119.59 35.947L119.805 33.8279C119.903 32.9294 119.952 32.2328 119.952 31.738C119.952 31.0479 119.796 30.5043 119.483 30.1072C119.62 30.0616 119.848 29.9835 120.167 29.8728C120.57 29.7296 120.893 29.6579 121.133 29.6579C121.641 29.6579 121.895 30.029 121.895 30.7712C121.895 31.1618 121.846 31.8324 121.749 32.7829C121.729 32.9913 121.71 33.1898 121.69 33.3786L121.436 36.1033ZM142.589 33.8962C141.573 35.7257 140.508 37.1775 139.395 38.2517C138.288 39.3194 137.299 39.8533 136.426 39.8533C135.73 39.8533 135.176 39.5505 134.766 38.9451C134.356 38.3331 134.151 37.516 134.151 36.4939C134.151 34.4366 134.763 32.6365 135.987 31.0935C137.211 29.544 138.633 28.7693 140.255 28.7693C141.225 28.7693 142.283 29.0785 143.428 29.697L144.473 24.4333C143.9 24.5505 143.425 24.6091 143.047 24.6091C142.475 24.6091 142.055 24.4757 141.788 24.2087C141.521 23.9353 141.306 23.4275 141.143 22.6853C141.612 23.0043 142.331 23.1638 143.301 23.1638C144.506 23.1638 145.668 22.9424 146.788 22.4997L144.659 33.2029C144.418 34.4008 144.297 35.4197 144.297 36.2595C144.297 37.3793 144.617 37.9392 145.255 37.9392C145.88 37.9392 146.918 37.2068 148.37 35.7419C149.828 34.2771 151.042 32.7439 152.012 31.1423L152.813 31.6501C151.654 33.7725 150.206 35.6703 148.467 37.3435C146.736 39.0167 145.352 39.8533 144.317 39.8533C143.002 39.8533 142.344 38.7986 142.344 36.6892C142.344 35.8168 142.426 34.8858 142.589 33.8962ZM143.106 31.3083C141.752 30.4164 140.626 29.9704 139.727 29.9704C138.751 29.9704 137.904 30.5694 137.188 31.7673C136.478 32.9652 136.124 34.3812 136.124 36.0154C136.124 37.3305 136.553 37.988 137.413 37.988C138.337 37.988 140.115 35.9437 142.745 31.8552C142.79 31.7836 142.911 31.6013 143.106 31.3083ZM152.481 39.5408C152.038 39.7491 151.684 39.8533 151.417 39.8533C150.753 39.8533 150.421 39.5603 150.421 38.9743C150.421 38.6749 150.538 37.9294 150.772 36.738L151.26 34.3064C151.56 32.8611 151.71 31.7901 151.71 31.0935C151.71 30.7159 151.602 30.4001 151.387 30.1462C152.071 29.9118 152.628 29.7947 153.057 29.7947C153.513 29.7947 153.741 30.0844 153.741 30.6638C153.741 31.0219 153.578 31.9626 153.253 33.4861L152.696 36.3279C153.926 33.9385 155.163 32.0831 156.407 30.7615C157.657 29.4333 158.79 28.7693 159.805 28.7693C160.163 28.7693 160.473 28.8734 160.733 29.0818C160.993 29.2836 161.124 29.531 161.124 29.824C161.124 30.2797 160.629 30.8852 159.639 31.6404C159.392 31.126 159.04 30.8689 158.585 30.8689C157.758 30.8689 156.703 31.7478 155.421 33.5056C154.626 34.5993 153.936 35.7289 153.35 36.8943C152.764 38.0531 152.471 38.8799 152.471 39.3747L152.481 39.5408ZM169.297 33.6423C168.464 35.3676 167.436 36.8357 166.212 38.0466C164.994 39.251 163.933 39.8533 163.028 39.8533C162.338 39.8533 161.784 39.5473 161.368 38.9353C160.958 38.3168 160.753 37.4965 160.753 36.4743C160.753 34.4366 161.368 32.643 162.598 31.0935C163.835 29.544 165.264 28.7693 166.885 28.7693C167.868 28.7693 168.933 29.0753 170.079 29.6872C170.248 29.0818 170.938 28.779 172.149 28.779C172.227 28.779 172.354 28.7823 172.53 28.7888C172.159 29.3552 171.876 30.1299 171.68 31.113L171.514 31.9431C171.325 32.8676 171.231 33.9483 171.231 35.1853C171.231 36.6111 171.563 37.324 172.227 37.324C172.93 37.324 173.891 36.738 175.108 35.5661C176.332 34.3878 177.533 32.8904 178.712 31.074L179.473 31.6013C178.269 33.7497 176.892 35.5434 175.342 36.9822C173.793 38.4145 172.462 39.1306 171.348 39.1306C169.942 39.1306 169.239 37.9587 169.239 35.615C169.239 35.1267 169.258 34.4691 169.297 33.6423ZM169.756 31.3083C168.389 30.4164 167.253 29.9704 166.348 29.9704C165.365 29.9704 164.516 30.5694 163.799 31.7673C163.083 32.9587 162.725 34.3747 162.725 36.0154C162.725 37.3305 163.155 37.988 164.014 37.988C164.945 37.988 166.726 35.9437 169.356 31.8552C169.389 31.8031 169.522 31.6208 169.756 31.3083ZM180.01 36.1033C182.322 31.2139 184.398 28.7693 186.241 28.7693C187.68 28.7693 188.399 30.2016 188.399 33.0661L188.419 34.2478C188.419 35.615 188.487 36.5622 188.624 37.0896C188.767 37.6104 189.024 37.8708 189.395 37.8708C189.955 37.8708 190.59 37.4249 191.299 36.5329C192.016 35.641 193.178 33.8474 194.786 31.1521L195.606 31.6306C194.174 34.3324 192.891 36.3376 191.758 37.6462C190.626 38.9548 189.61 39.6091 188.712 39.6091C187.885 39.6091 187.302 39.2087 186.964 38.4079C186.631 37.6072 186.465 36.2204 186.465 34.2478L186.456 33.4079C186.456 32.3402 186.387 31.5915 186.251 31.1618C186.114 30.7257 185.876 30.5076 185.538 30.5076C184.678 30.5076 183.295 32.223 181.387 35.654C180.919 36.4939 180.616 37.0342 180.479 37.2751C179.978 38.1475 179.727 38.779 179.727 39.1697C179.727 39.3259 179.77 39.4757 179.854 39.6189C179.477 39.7751 179.158 39.8533 178.897 39.8533C178.24 39.8533 177.911 39.4887 177.911 38.7595C177.911 38.5512 177.995 37.6137 178.165 35.947L178.38 33.8279C178.477 32.9294 178.526 32.2328 178.526 31.738C178.526 31.0479 178.37 30.5043 178.057 30.1072C178.194 30.0616 178.422 29.9835 178.741 29.8728C179.145 29.7296 179.467 29.6579 179.708 29.6579C180.215 29.6579 180.469 30.029 180.469 30.7712C180.469 31.1618 180.421 31.8324 180.323 32.7829C180.303 32.9913 180.284 33.1898 180.264 33.3786L180.01 36.1033Z" fill="#FFA500"/>
<path d="M21.5782 31.471V25.238H27.2864C28.5781 25.2552 31.1512 25.9077 31.1093 28.3803C31.0674 30.8529 28.5432 31.471 27.2864 31.471H21.5782Z" fill="black"/>
<path d="M24.9992 29.2339V27.4751H26.6099C26.9744 27.48 27.7004 27.6641 27.6886 28.3618C27.6768 29.0595 26.9645 29.2339 26.6099 29.2339H24.9992Z" fill="black"/>
<path d="M21.5782 31.471V25.238H27.2864C28.5781 25.2552 31.1512 25.9077 31.1093 28.3803C31.0674 30.8529 28.5432 31.471 27.2864 31.471H21.5782Z" fill="black"/>
<path d="M24.9992 29.2339V27.4751H26.6099C26.9744 27.48 27.7004 27.6641 27.6886 28.3618C27.6768 29.0595 26.9645 29.2339 26.6099 29.2339H24.9992Z" fill="black"/>
<path d="M21.5782 25.238V31.471H27.2864C28.5432 31.471 31.0674 30.8529 31.1093 28.3803C31.1512 25.9077 28.5781 25.2552 27.2864 25.238H21.5782ZM24.9992 27.4751V29.2339H26.6099C26.9645 29.2339 27.6768 29.0595 27.6886 28.3618C27.7004 27.6641 26.9744 27.48 26.6099 27.4751H24.9992Z" stroke="black" stroke-width="0.5"/>
<path d="M21.5782 33.676V31.471H27.5754C27.5562 31.471 30.3783 31.4522 30.8582 34.0174C31.3375 36.5791 28.9374 37.4039 27.4586 37.6242H22.8912L24.7801 35.4656H26.5318C26.5581 35.4609 27.5723 35.2797 27.4586 34.4895C27.4586 34.0174 27.119 33.6378 26.4397 33.676H21.5782Z" fill="black"/>
<path d="M21.5782 31.471V33.676H26.4397C27.119 33.6378 27.4586 34.0174 27.4586 34.4895C27.5754 35.3015 26.5012 35.4704 26.532 35.4656H24.7801L22.8912 37.6242H27.4586C28.9374 37.4039 31.3375 36.5791 30.8582 34.0174C30.3783 31.4522 27.5562 31.471 27.5754 31.471C27.5908 31.471 23.5837 31.471 21.5782 31.471Z" stroke="black" stroke-width="0.5"/>
</svg>
