<?xml version="1.0" encoding="UTF-8"?>
<svg xmlns="http://www.w3.org/2000/svg" xmlns:xlink="http://www.w3.org/1999/xlink" viewBox="0 0 80 80" width="80px" height="80px">
<g id="surface166567027">
<path style=" stroke:none;fill-rule:nonzero;fill:rgb(94.509804%,73.725492%,9.803922%);fill-opacity:1;" d="M 63.199219 11.199219 C 63.199219 11.640625 62.84375 12 62.398438 12 C 61.957031 12 61.601562 11.640625 61.601562 11.199219 C 61.601562 10.757812 61.957031 10.398438 62.398438 10.398438 C 62.84375 10.398438 63.199219 10.757812 63.199219 11.199219 Z M 63.199219 11.199219 "/>
<path style=" stroke:none;fill-rule:nonzero;fill:rgb(98.823529%,87.843138%,63.529414%);fill-opacity:1;" d="M 70.398438 40 C 70.398438 56.789062 56.789062 70.398438 40 70.398438 C 23.210938 70.398438 9.601562 56.789062 9.601562 40 C 9.601562 23.210938 23.210938 9.601562 40 9.601562 C 56.789062 9.601562 70.398438 23.210938 70.398438 40 Z M 70.398438 40 "/>
<path style=" stroke:none;fill-rule:nonzero;fill:rgb(94.509804%,73.725492%,9.803922%);fill-opacity:1;" d="M 70.398438 12.800781 C 70.398438 14.566406 68.96875 16 67.199219 16 C 65.433594 16 64 14.566406 64 12.800781 C 64 11.03125 65.433594 9.601562 67.199219 9.601562 C 68.96875 9.601562 70.398438 11.03125 70.398438 12.800781 Z M 70.398438 12.800781 "/>
<path style=" stroke:none;fill-rule:nonzero;fill:rgb(93.333334%,24.313726%,32.941177%);fill-opacity:1;" d="M 12.800781 20.800781 C 12.800781 21.683594 12.082031 22.398438 11.199219 22.398438 C 10.316406 22.398438 9.601562 21.683594 9.601562 20.800781 C 9.601562 19.917969 10.316406 19.199219 11.199219 19.199219 C 12.082031 19.199219 12.800781 19.917969 12.800781 20.800781 Z M 12.800781 20.800781 "/>
<path style=" stroke:none;fill-rule:nonzero;fill:rgb(98.431373%,80.392158%,34.901962%);fill-opacity:1;" d="M 64 61.601562 C 64 62.484375 63.285156 63.199219 62.398438 63.199219 C 61.515625 63.199219 60.800781 62.484375 60.800781 61.601562 C 60.800781 60.714844 61.515625 60 62.398438 60 C 63.285156 60 64 60.714844 64 61.601562 Z M 64 61.601562 "/>
<path style=" stroke:none;fill-rule:nonzero;fill:rgb(98.431373%,80.392158%,34.901962%);fill-opacity:1;" d="M 16.800781 62.398438 C 16.800781 64.167969 15.367188 65.601562 13.601562 65.601562 C 11.832031 65.601562 10.398438 64.167969 10.398438 62.398438 C 10.398438 60.632812 11.832031 59.199219 13.601562 59.199219 C 15.367188 59.199219 16.800781 60.632812 16.800781 62.398438 Z M 16.800781 62.398438 "/>
<path style=" stroke:none;fill-rule:nonzero;fill:rgb(93.333334%,24.313726%,32.941177%);fill-opacity:1;" d="M 20.800781 66.398438 C 20.800781 67.285156 20.082031 68 19.199219 68 C 18.316406 68 17.601562 67.285156 17.601562 66.398438 C 17.601562 65.515625 18.316406 64.800781 19.199219 64.800781 C 20.082031 64.800781 20.800781 65.515625 20.800781 66.398438 Z M 20.800781 66.398438 "/>
<path style=" stroke:none;fill-rule:nonzero;fill:rgb(100%,100%,100%);fill-opacity:1;" d="M 55.171875 62.8125 C 55.171875 63.910156 54.285156 64.800781 53.1875 64.800781 C 52.089844 64.800781 51.199219 63.910156 51.199219 62.8125 C 51.199219 61.714844 52.089844 60.828125 53.1875 60.828125 C 54.285156 60.828125 55.171875 61.714844 55.171875 62.8125 Z M 55.171875 62.8125 "/>
<path style=" stroke:none;fill-rule:nonzero;fill:rgb(100%,100%,100%);fill-opacity:1;" d="M 13.601562 38.398438 C 13.601562 38.84375 13.242188 39.199219 12.800781 39.199219 C 12.359375 39.199219 12 38.84375 12 38.398438 C 12 37.957031 12.359375 37.601562 12.800781 37.601562 C 13.242188 37.601562 13.601562 37.957031 13.601562 38.398438 Z M 13.601562 38.398438 "/>
<path style=" stroke:none;fill-rule:nonzero;fill:rgb(94.509804%,73.725492%,9.803922%);fill-opacity:1;" d="M 69.601562 24.800781 C 69.601562 25.242188 69.242188 25.601562 68.800781 25.601562 C 68.359375 25.601562 68 25.242188 68 24.800781 C 68 24.359375 68.359375 24 68.800781 24 C 69.242188 24 69.601562 24.359375 69.601562 24.800781 Z M 69.601562 24.800781 "/>
<path style=" stroke:none;fill-rule:nonzero;fill:rgb(100%,100%,100%);fill-opacity:1;" d="M 65.601562 52.800781 C 65.601562 53.683594 64.882812 54.398438 64 54.398438 C 63.117188 54.398438 62.398438 53.683594 62.398438 52.800781 C 62.398438 51.917969 63.117188 51.199219 64 51.199219 C 64.882812 51.199219 65.601562 51.917969 65.601562 52.800781 Z M 65.601562 52.800781 "/>
<path style=" stroke:none;fill-rule:nonzero;fill:rgb(47.058824%,62.7451%,81.176472%);fill-opacity:1;" d="M 59.398438 40 C 59.398438 50.714844 50.714844 59.398438 40 59.398438 C 29.285156 59.398438 20.601562 50.714844 20.601562 40 C 20.601562 29.285156 29.285156 20.601562 40 20.601562 C 50.714844 20.601562 59.398438 29.285156 59.398438 40 Z M 59.398438 40 "/>
<path style=" stroke:none;fill-rule:nonzero;fill:rgb(27.843139%,16.862746%,16.078432%);fill-opacity:1;" d="M 40 59.960938 C 28.996094 59.960938 20.039062 51.007812 20.039062 40 C 20.039062 28.992188 28.996094 20.039062 40 20.039062 C 51.003906 20.039062 59.960938 28.992188 59.960938 40 C 59.960938 51.007812 51.003906 59.960938 40 59.960938 Z M 40 21.160156 C 29.613281 21.160156 21.160156 29.609375 21.160156 40 C 21.160156 50.390625 29.613281 58.839844 40 58.839844 C 50.386719 58.839844 58.839844 50.386719 58.839844 40 C 58.839844 29.613281 50.386719 21.160156 40 21.160156 Z M 40 21.160156 "/>
<path style=" stroke:none;fill-rule:nonzero;fill:rgb(47.058824%,62.7451%,81.176472%);fill-opacity:1;" d="M 56.300781 40.101562 C 56.300781 49.101562 48.980469 56.398438 39.949219 56.398438 C 30.921875 56.398438 23.601562 49.101562 23.601562 40.101562 C 23.601562 31.097656 30.921875 23.800781 39.949219 23.800781 C 48.980469 23.800781 56.300781 31.097656 56.300781 40.101562 Z M 56.300781 40.101562 "/>
<path style=" stroke:none;fill-rule:nonzero;fill:rgb(27.843139%,16.862746%,16.078432%);fill-opacity:1;" d="M 55.539062 35.800781 C 55.367188 35.800781 55.210938 35.6875 55.15625 35.515625 C 55.085938 35.289062 55.011719 35.058594 54.929688 34.835938 C 54.617188 33.960938 54.222656 33.105469 53.753906 32.300781 C 53.640625 32.109375 53.707031 31.863281 53.898438 31.753906 C 54.089844 31.640625 54.335938 31.707031 54.445312 31.898438 C 54.9375 32.746094 55.351562 33.644531 55.683594 34.5625 C 55.765625 34.800781 55.847656 35.039062 55.921875 35.28125 C 55.984375 35.492188 55.867188 35.71875 55.65625 35.78125 C 55.617188 35.792969 55.578125 35.800781 55.539062 35.800781 Z M 55.539062 35.800781 "/>
<path style=" stroke:none;fill-rule:nonzero;fill:rgb(27.843139%,16.862746%,16.078432%);fill-opacity:1;" d="M 40 56.699219 C 30.792969 56.699219 23.300781 49.230469 23.300781 40.050781 C 23.300781 30.867188 30.792969 23.398438 40 23.398438 C 44.78125 23.398438 49.339844 25.449219 52.507812 29.019531 C 52.746094 29.289062 52.980469 29.566406 53.199219 29.851562 C 53.335938 30.027344 53.304688 30.277344 53.132812 30.410156 C 52.957031 30.550781 52.707031 30.515625 52.570312 30.339844 C 52.359375 30.070312 52.136719 29.804688 51.910156 29.550781 C 48.894531 26.152344 44.550781 24.199219 40 24.199219 C 31.234375 24.199219 24.101562 31.308594 24.101562 40.050781 C 24.101562 48.789062 31.234375 55.898438 40 55.898438 C 48.765625 55.898438 55.898438 48.789062 55.898438 40.050781 C 55.898438 39.253906 55.839844 38.453125 55.722656 37.671875 C 55.691406 37.453125 55.839844 37.25 56.058594 37.21875 C 56.28125 37.183594 56.480469 37.335938 56.511719 37.554688 C 56.636719 38.371094 56.699219 39.214844 56.699219 40.050781 C 56.699219 49.230469 49.207031 56.699219 40 56.699219 Z M 40 56.699219 "/>
<path style=" stroke:none;fill-rule:nonzero;fill:rgb(100%,100%,100%);fill-opacity:1;" d="M 50.351562 34.21875 C 49.636719 34.542969 48.863281 34.761719 48.054688 34.859375 C 48.878906 34.355469 49.515625 33.554688 49.8125 32.597656 C 49.039062 33.066406 48.183594 33.40625 47.273438 33.589844 C 46.542969 32.796875 45.503906 32.300781 44.351562 32.300781 C 42.140625 32.300781 40.347656 34.128906 40.347656 36.390625 C 40.347656 36.707031 40.386719 37.023438 40.453125 37.320312 C 37.125 37.152344 34.175781 35.523438 32.203125 33.046875 C 31.859375 33.652344 31.664062 34.355469 31.664062 35.105469 C 31.664062 36.523438 32.367188 37.773438 33.441406 38.507812 C 32.785156 38.488281 32.167969 38.304688 31.628906 37.996094 C 31.628906 38.015625 31.628906 38.03125 31.628906 38.046875 C 31.628906 40.03125 33.007812 41.683594 34.835938 42.058594 C 34.503906 42.152344 34.148438 42.203125 33.78125 42.203125 C 33.523438 42.203125 33.273438 42.175781 33.03125 42.128906 C 33.539062 43.753906 35.019531 44.9375 36.769531 44.96875 C 35.398438 46.066406 33.675781 46.722656 31.800781 46.722656 C 31.476562 46.722656 31.15625 46.699219 30.84375 46.664062 C 32.617188 47.824219 34.71875 48.5 36.980469 48.5 C 44.339844 48.5 48.367188 42.269531 48.367188 36.863281 C 48.367188 36.6875 48.363281 36.511719 48.355469 36.335938 C 49.136719 35.757812 49.816406 35.039062 50.351562 34.21875 Z M 50.351562 34.21875 "/>
<path style=" stroke:none;fill-rule:nonzero;fill:rgb(27.843139%,16.862746%,16.078432%);fill-opacity:1;" d="M 36.980469 48.898438 C 34.722656 48.898438 32.527344 48.242188 30.625 47 C 30.472656 46.898438 30.40625 46.703125 30.46875 46.527344 C 30.53125 46.351562 30.710938 46.242188 30.894531 46.265625 C 32.582031 46.46875 34.28125 46.101562 35.71875 45.222656 C 34.285156 44.835938 33.113281 43.730469 32.648438 42.25 C 32.605469 42.113281 32.640625 41.96875 32.734375 41.863281 C 32.828125 41.757812 32.96875 41.707031 33.105469 41.738281 C 33.113281 41.738281 33.117188 41.738281 33.125 41.738281 C 31.96875 40.921875 31.226562 39.554688 31.226562 38.050781 C 31.226562 37.90625 31.304688 37.75 31.425781 37.679688 C 31.550781 37.605469 31.703125 37.578125 31.828125 37.652344 C 31.929688 37.710938 32.039062 37.765625 32.148438 37.8125 C 31.582031 37.042969 31.261719 36.097656 31.261719 35.105469 C 31.261719 34.3125 31.46875 33.535156 31.855469 32.851562 C 31.921875 32.734375 32.039062 32.660156 32.171875 32.652344 C 32.308594 32.640625 32.433594 32.695312 32.515625 32.800781 C 34.375 35.128906 37.070312 36.597656 39.976562 36.886719 C 39.960938 36.722656 39.949219 36.554688 39.949219 36.390625 C 39.949219 33.914062 41.925781 31.902344 44.351562 31.902344 C 45.488281 31.902344 46.589844 32.355469 47.40625 33.15625 C 48.179688 32.976562 48.917969 32.675781 49.605469 32.257812 C 49.75 32.171875 49.929688 32.183594 50.058594 32.285156 C 50.191406 32.390625 50.246094 32.5625 50.195312 32.71875 C 50.03125 33.238281 49.777344 33.722656 49.449219 34.140625 C 49.699219 34.058594 49.945312 33.964844 50.1875 33.855469 C 50.347656 33.78125 50.539062 33.824219 50.65625 33.957031 C 50.769531 34.09375 50.78125 34.289062 50.6875 34.4375 C 50.160156 35.242188 49.511719 35.945312 48.761719 36.527344 C 48.765625 36.640625 48.765625 36.753906 48.765625 36.863281 C 48.765625 42.78125 44.359375 48.898438 36.980469 48.898438 Z M 32.445312 47.097656 C 33.863281 47.757812 35.40625 48.101562 36.980469 48.101562 C 43.859375 48.101562 47.964844 42.386719 47.964844 36.863281 C 47.964844 36.691406 47.960938 36.519531 47.957031 36.351562 C 47.949219 36.21875 48.011719 36.089844 48.117188 36.011719 C 48.507812 35.726562 48.867188 35.402344 49.195312 35.050781 C 48.835938 35.144531 48.472656 35.210938 48.101562 35.257812 C 47.917969 35.285156 47.738281 35.171875 47.675781 34.992188 C 47.613281 34.8125 47.683594 34.617188 47.84375 34.519531 C 48.273438 34.257812 48.644531 33.90625 48.929688 33.496094 C 48.421875 33.710938 47.894531 33.875 47.351562 33.984375 C 47.214844 34.011719 47.074219 33.964844 46.976562 33.863281 C 46.300781 33.125 45.339844 32.699219 44.351562 32.699219 C 42.367188 32.699219 40.75 34.355469 40.75 36.390625 C 40.75 36.675781 40.78125 36.960938 40.84375 37.234375 C 40.871094 37.355469 40.839844 37.484375 40.757812 37.578125 C 40.679688 37.675781 40.558594 37.730469 40.433594 37.722656 C 37.320312 37.5625 34.390625 36.136719 32.300781 33.785156 C 32.144531 34.203125 32.0625 34.652344 32.0625 35.105469 C 32.0625 36.34375 32.664062 37.492188 33.667969 38.179688 C 33.816406 38.28125 33.878906 38.464844 33.824219 38.632812 C 33.765625 38.800781 33.601562 38.902344 33.429688 38.910156 C 32.96875 38.894531 32.511719 38.804688 32.078125 38.644531 C 32.328125 40.152344 33.445312 41.367188 34.917969 41.667969 C 35.097656 41.703125 35.230469 41.859375 35.238281 42.046875 C 35.242188 42.230469 35.125 42.394531 34.945312 42.445312 C 34.523438 42.5625 34.09375 42.613281 33.65625 42.601562 C 34.257812 43.777344 35.445312 44.542969 36.777344 44.570312 C 36.945312 44.574219 37.09375 44.679688 37.148438 44.839844 C 37.199219 45 37.152344 45.175781 37.019531 45.28125 C 35.6875 46.347656 34.117188 46.96875 32.445312 47.097656 Z M 32.445312 47.097656 "/>
</g>
</svg>
