<?xml version="1.0" encoding="UTF-8"?>
<svg version="1.1" xmlns="http://www.w3.org/2000/svg" width="478" height="111">
<path d="M0 0 C157.74 0 315.48 0 478 0 C478 36.63 478 73.26 478 111 C320.26 111 162.52 111 0 111 C0 74.37 0 37.74 0 0 Z " fill="#FEFDFC" transform="translate(0,0)"/>
<path d="M0 0 C0.73195587 -0.00014603 1.46391174 -0.00029205 2.2180481 -0.0004425 C4.63668789 0.00025399 7.05525061 0.00803411 9.47387695 0.01586914 C11.15110736 0.01773425 12.82833831 0.01915772 14.50556946 0.02015686 C18.91966252 0.02397469 23.33372267 0.03379873 27.74780273 0.04486084 C32.25219274 0.05509072 36.75658806 0.05965786 41.26098633 0.06469727 C50.09889141 0.07542164 58.93677207 0.09248928 67.7746582 0.11352539 C64.68877961 3.27984695 61.59703566 5.72045398 57.8996582 8.16040039 C57.05189819 8.72274384 57.05189819 8.72274384 56.18701172 9.29644775 C54.3857588 10.48987378 52.58035097 11.67683049 50.7746582 12.86352539 C49.5933818 13.64434164 48.41238981 14.42558836 47.23168945 15.20727539 C42.61958923 18.25863841 38.00698317 21.30900006 33.37768555 24.33422852 C32.3201709 25.02967773 31.26265625 25.72512695 30.1730957 26.44165039 C29.23643066 27.05427734 28.29976562 27.6669043 27.3347168 28.2980957 C24.82457601 30.07812688 22.64125201 32.01086883 20.3996582 34.11352539 C12.68173328 39.55853391 1.72514952 38.21343726 -7.2253418 37.11352539 C-15.17456553 35.6188583 -22.98145904 32.4810973 -28.2253418 26.11352539 C-30.45896813 22.57695036 -30.63796273 19.3042389 -29.9362793 15.16430664 C-28.11259309 9.90367335 -24.02796181 7.01367242 -19.19799805 4.60180664 C-12.62585304 1.82159015 -7.14681767 -0.03721079 0 0 Z " fill="#FEAD04" transform="translate(41.225341796875,21.886474609375)"/>
<path d="M0 0 C3.40413455 2.06822935 5.46882529 4.362977 6.96948242 8.03125 C7.59849463 12.98472117 7.63381356 14.93831813 5.03198242 19.21875 C-0.97194896 25.46147411 -8.18200338 27.87127838 -16.67526245 28.15150452 C-18.0435169 28.15437113 -19.41178997 28.15181856 -20.7800293 28.14477539 C-21.53193039 28.14492142 -22.28383148 28.14506744 -23.05851746 28.1452179 C-25.52577676 28.14452528 -27.99295908 28.13676358 -30.46020508 28.12890625 C-32.17798827 28.12703975 -33.89577199 28.12561694 -35.61355591 28.12461853 C-40.12131231 28.12081159 -44.62903618 28.11099696 -49.13677979 28.09991455 C-53.74197957 28.08966115 -58.34718465 28.08511251 -62.95239258 28.08007812 C-71.97844849 28.06937298 -81.00448032 28.05231856 -90.03051758 28.03125 C-86.66870353 24.60212441 -83.46451201 21.80464045 -79.41723633 19.2109375 C-78.34296387 18.51540771 -77.26869141 17.81987793 -76.16186523 17.10327148 C-74.42346213 15.99154989 -72.68262069 14.88378619 -70.94036865 13.77810669 C-69.1570116 12.64584785 -67.37600407 11.51006044 -65.59692383 10.37109375 C-64.72665558 9.81395439 -64.72665558 9.81395439 -63.83880615 9.24555969 C-60.62938796 7.16149762 -57.63611584 4.97816921 -54.74536133 2.47265625 C-40.04695539 -10.06306812 -16.79356558 -8.01212796 0 0 Z " fill="#F0A402" transform="translate(115.030517578125,53.96875)"/>
<path d="M0 0 C5.94 0 11.88 0 18 0 C16.69791667 3.3203125 15.39583333 6.640625 14.09375 9.9609375 C12.88712206 12.7753244 12.88712206 12.7753244 13 15 C13.68835938 14.47599609 13.68835938 14.47599609 14.390625 13.94140625 C15.00421875 13.48636719 15.6178125 13.03132813 16.25 12.5625 C16.85328125 12.11003906 17.4565625 11.65757813 18.078125 11.19140625 C22.43933204 8.48781245 27.01906156 8.60468743 32 9 C34 10.4375 34 10.4375 35 13 C35.22339665 16.01845245 35.17422244 18.98014438 35 22 C42.70091392 21.11628857 46.63351289 18.28704602 52.32421875 13.09375 C58.37884669 8.35611413 64.52530018 8.74553374 71.875 8.875 C72.84953125 8.88402344 73.8240625 8.89304687 74.828125 8.90234375 C77.21885672 8.9257823 79.60946099 8.96164911 82 9 C81.67 12.96 81.34 16.92 81 21 C87.97304118 20.77506319 92.05646262 19.17619585 97.8359375 15.27734375 C100 14 100 14 103 14 C101.66619327 18.00142018 99.9328735 18.50071288 96.3125 20.5625 C95.27738281 21.16191406 94.24226562 21.76132813 93.17578125 22.37890625 C87.24713611 25.40521342 82.57447305 26.53889123 76 26 C74 24.75 74 24.75 73 23 C73 21.68 73 20.36 73 19 C72.24074219 19.49371094 71.48148438 19.98742187 70.69921875 20.49609375 C69.70535156 21.13675781 68.71148437 21.77742188 67.6875 22.4375 C66.20830078 23.39462891 66.20830078 23.39462891 64.69921875 24.37109375 C60.26983673 27.04410721 56.09182191 27.8168131 51 27 C49 25 49 25 48 23 C43.92035719 24.30155006 43.92035719 24.30155006 40 26 C32.98400984 26.56580566 32.98400984 26.56580566 29.5 24.5625 C27.28647574 20.78106272 27.67082764 17.2792407 28 13 C20.53613367 14.06626662 15.25590462 16.4551873 10 22 C8.73631775 24.61658572 8.73631775 24.61658572 8 27 C6.02 27 4.04 27 2 27 C2.4486237 21.70624037 3.01223334 18.48164999 6 14 C6.33 12.68 6.66 11.36 7 10 C0.07 10 -6.86 10 -14 10 C-14.2784375 12.9390625 -14.2784375 12.9390625 -14.5625 15.9375 C-14.66691406 17.03964844 -14.77132812 18.14179687 -14.87890625 19.27734375 C-14.91886719 20.17582031 -14.95882812 21.07429688 -15 22 C-13.84354174 23.37375369 -13.84354174 23.37375369 -10.6875 23.25 C-6.78860101 22.98566787 -5.84835111 22.44144381 -3 20 C-2.01 20 -1.02 20 0 20 C0 20.99 0 21.98 0 23 C-6.22025526 26.36554874 -11.8809611 28.29088497 -19 27 C-21.625 25.1875 -21.625 25.1875 -23 23 C-23 22.01 -23 21.02 -23 20 C-23.88042969 20.42152344 -24.76085937 20.84304687 -25.66796875 21.27734375 C-26.82941406 21.82519531 -27.99085938 22.37304688 -29.1875 22.9375 C-30.33605469 23.48277344 -31.48460937 24.02804688 -32.66796875 24.58984375 C-37.74331489 26.73779212 -42.0721223 27.15569016 -47.5625 27.1875 C-48.67753906 27.20167969 -49.79257813 27.21585938 -50.94140625 27.23046875 C-53.90950172 27.00681915 -55.5506184 26.64252648 -58 25 C-59.639025 21.72195 -59.54326779 19.62178526 -59 16 C-55.17620163 11.99835054 -50.82894908 9.17108975 -45.22265625 8.83203125 C-44.17980469 8.82558594 -43.13695312 8.81914063 -42.0625 8.8125 C-41.02222656 8.79832031 -39.98195313 8.78414062 -38.91015625 8.76953125 C-36.04953387 8.99607718 -34.42329849 9.52266381 -32 11 C-32 12.32 -32 13.64 -32 15 C-39.27398802 19.4214437 -44.55481257 20.16559191 -53 20 C-52.67 21.32 -52.34 22.64 -52 24 C-41.74849937 23.24544792 -32.70413122 22.03370954 -24 16 C-22.20603743 13.92717371 -22.20603743 13.92717371 -21 12 C-23.31 11.67 -25.62 11.34 -28 11 C-27.67 10.01 -27.34 9.02 -27 8 C-24.03 8 -21.06 8 -18 8 C-17.34 6.68 -16.68 5.36 -16 4 C-15 3 -15 3 -11.4375 2.9375 C-10.303125 2.958125 -9.16875 2.97875 -8 3 C-8.99 4.65 -9.98 6.3 -11 8 C-4.73 7.67 1.54 7.34 8 7 C8.33 6.01 8.66 5.02 9 4 C6.36 3.67 3.72 3.34 1 3 C0.505 1.515 0.505 1.515 0 0 Z " fill="#FEB01A" transform="translate(302,44)"/>
<path d="M0 0 C1.21300781 -0.02449219 2.42601563 -0.04898438 3.67578125 -0.07421875 C14.07338834 -0.10750885 25.48536327 1.30636811 33.625 8.375 C36.48524881 11.80729857 37.23851871 14.89682186 37.02734375 19.390625 C36.11378024 23.89635573 33.14499682 26.28718796 29.60546875 28.8203125 C24.27356485 32.08855482 19.84316069 33.07889711 13.625 33.375 C13.955 32.385 14.285 31.395 14.625 30.375 C15.285 30.375 15.945 30.375 16.625 30.375 C16.625 22.785 16.625 15.195 16.625 7.375 C12.995 7.375 9.365 7.375 5.625 7.375 C5.625 11.005 5.625 14.635 5.625 18.375 C1.73769299 16.4313465 0.852694 15.53007907 -1.6875 12.3125 C-5.50240041 8.29413823 -9.00558924 7.5922958 -14.375 7.375 C-16.71585335 7.3173408 -19.03270374 7.32620216 -21.375 7.375 C-14.19696417 0.00296321 -9.98356626 0.01028174 0 0 Z " fill="#FDAE06" transform="translate(85.375,48.625)"/>
<path d="M0 0 C12.38752784 -1.08240535 12.38752784 -1.08240535 16.828125 1.8984375 C19.04970623 4.17151234 21.04269102 6.49827395 23 9 C23.99 9.99 24.98 10.98 26 12 C26 8.04 26 4.08 26 0 C28.97 0 31.94 0 35 0 C35 6.93 35 13.86 35 21 C24.03636364 22.29677419 24.03636364 22.29677419 20.3046875 19.92041016 C16.81347168 16.96362865 13.87379468 13.54761027 11 10 C10.67 13.63 10.34 17.26 10 21 C6.7 21 3.4 21 0 21 C0 14.07 0 7.14 0 0 Z " fill="#050300" transform="translate(66,57)"/>
<path d="M0 0 C2.6875 -0.375 2.6875 -0.375 6 0 C8.625 2.75 8.625 2.75 9.7265625 4.296875 C11.01965352 6.11382193 11.01965352 6.11382193 12.93359375 7.9140625 C15.68532918 10.69180677 17.84905213 13.80308441 20.12109375 16.9765625 C22.25594324 19.27563118 24.03937056 20.05544241 27 21 C31.28428148 15.28762469 31.20841781 11.47692433 30.26171875 4.4765625 C30.17535156 3.65929688 30.08898437 2.84203125 30 2 C31 1 31 1 33.4375 0.8125 C36 1 36 1 38 3 C38.24621028 8.75663091 36.58919734 13.91407665 34 19 C33.45666016 20.09441406 33.45666016 20.09441406 32.90234375 21.2109375 C29.89581083 26.7213033 29.89581083 26.7213033 26.1875 27.875 C18.09615567 25.65384665 13.78754599 19.82315392 9.4453125 12.9765625 C8.96835938 12.32429688 8.49140625 11.67203125 8 11 C7.34 11 6.68 11 6 11 C4.08373163 15.98229776 3.4452885 20.72684667 3 26 C0.69 26.33 -1.62 26.66 -4 27 C-5.45021004 23.25362407 -4.80527594 21.02882685 -3.25 17.5 C-2.02566774 14.9233565 -0.76162631 12.63832957 0.8125 10.25 C2.24533221 8.03344447 2.24533221 8.03344447 1.75 5.375 C1.18259728 3.57822473 0.5958479 1.78754371 0 0 Z " fill="#FEAE15" transform="translate(143,44)"/>
<path d="M0 0 C0.97453125 0.00902344 1.9490625 0.01804688 2.953125 0.02734375 C5.34385672 0.0507823 7.73446099 0.08664911 10.125 0.125 C9.795 4.085 9.465 8.045 9.125 12.125 C16.09804118 11.90006319 20.18146262 10.30119585 25.9609375 6.40234375 C28.125 5.125 28.125 5.125 31.125 5.125 C29.79119327 9.12642018 28.0578735 9.62571288 24.4375 11.6875 C23.40238281 12.28691406 22.36726563 12.88632813 21.30078125 13.50390625 C15.37213611 16.53021342 10.69947305 17.66389123 4.125 17.125 C2.125 15.875 2.125 15.875 1.125 14.125 C1.125 12.805 1.125 11.485 1.125 10.125 C0.30708984 10.79208984 0.30708984 10.79208984 -0.52734375 11.47265625 C-4.68114785 14.58978445 -7.55108521 16.66069267 -12.875 16.0625 C-16.62022293 15.37977707 -16.62022293 15.37977707 -17.875 14.125 C-17.78497602 12.10091245 -17.62858962 10.07955713 -17.4375 8.0625 C-17.33566406 6.95777344 -17.23382813 5.85304688 -17.12890625 4.71484375 C-17.04511719 3.86019531 -16.96132813 3.00554688 -16.875 2.125 C-11.24066322 -0.28429552 -6.0060889 -0.10579831 0 0 Z " fill="#FEB220" transform="translate(373.875,52.875)"/>
<path d="M0 0 C2.625 -0.4375 2.625 -0.4375 6 0 C10.28976067 3.47410195 12.69460996 7.64790085 14 13 C18.29647355 10.64319655 21.44134422 8.84596447 24.1875 4.6875 C24.785625 3.800625 25.38375 2.91375 26 2 C28.75 1.625 28.75 1.625 31 2 C30.17027138 7.40508931 26.12309596 9.82838772 22 13 C17.47125034 16.21147004 13.47721565 17.55288036 8 18 C7.34 14.7 6.68 11.4 6 8 C4.33710938 8.95712891 4.33710938 8.95712891 2.640625 9.93359375 C1.17722701 10.76848106 -0.28632262 11.6031026 -1.75 12.4375 C-2.47960937 12.85837891 -3.20921875 13.27925781 -3.9609375 13.71289062 C-4.66992188 14.11572266 -5.37890625 14.51855469 -6.109375 14.93359375 C-6.75874023 15.30540771 -7.40810547 15.67722168 -8.07714844 16.06030273 C-12.32876154 18.13806541 -16.29778558 18.25648442 -21 18 C-21.99 17.34 -22.98 16.68 -24 16 C-24.2982655 11.45145106 -24.10962199 7.43848796 -23 3 C-20.69 3 -18.38 3 -16 3 C-16 5.31 -16 7.62 -16 10 C-16.66 10 -17.32 10 -18 10 C-18 11.65 -18 13.3 -18 15 C-10.61988673 12.79826621 -4.3466467 10.39383233 2 6 C1.34 4.02 0.68 2.04 0 0 Z " fill="#FEB11F" transform="translate(210,53)"/>
<path d="M0 0 C0 1.32 0 2.64 0 4 C-4.41029783 6.20949832 -8.48940324 6.2370648 -13.3125 6.125 C-14.05306641 6.11597656 -14.79363281 6.10695313 -15.55664062 6.09765625 C-17.37123467 6.07424213 -19.18566071 6.03837615 -21 6 C-21.12375 7.0621875 -21.2475 8.124375 -21.375 9.21875 C-21.91245965 12.47038089 -22.53489606 14.61288341 -24 17.5 C-25.85292864 21.41397608 -26.6338179 24.69736033 -27 29 C-29.64 29 -32.28 29 -35 29 C-34.52871368 23.53307865 -33.68852172 19.86002003 -31 15 C-30.44476804 13.75596614 -29.90319292 12.50575277 -29.375 11.25 C-28.6266035 9.48106281 -27.85898034 7.71796068 -27 6 C-32.28 6 -37.56 6 -43 6 C-43 5.34 -43 4.68 -43 4 C-40.04993558 2.52496779 -37.03413447 2.80268964 -33.796875 2.75390625 C-32.32681734 2.72095112 -30.8567654 2.68773977 -29.38671875 2.65429688 C-27.07181972 2.60701904 -24.75694108 2.56261821 -22.44189453 2.52319336 C-20.20580227 2.48323751 -17.97019514 2.43173532 -15.734375 2.37890625 C-15.0497821 2.3704921 -14.36518921 2.36207794 -13.65985107 2.35340881 C-8.87743258 2.23167144 -4.58128631 0 0 0 Z " fill="#FEB11F" transform="translate(464,42)"/>
<path d="M0 0 C1.04027344 -0.01417969 2.08054687 -0.02835938 3.15234375 -0.04296875 C6.01296613 0.18357718 7.63920151 0.71016381 10.0625 2.1875 C10.0625 3.5075 10.0625 4.8275 10.0625 6.1875 C2.78851198 10.6089437 -2.49231257 11.35309191 -10.9375 11.1875 C-10.6875 8.8125 -10.6875 8.8125 -9.9375 6.1875 C-7.875 4.875 -7.875 4.875 -5.9375 4.1875 C-5.9375 3.5275 -5.9375 2.8675 -5.9375 2.1875 C-6.9275 1.8575 -7.9175 1.5275 -8.9375 1.1875 C-5.74593552 0.12364517 -3.35252524 0.02072018 0 0 Z " fill="#FEAF19" transform="translate(259.9375,52.8125)"/>
<path d="M0 0 C-2.11722679 5.16424101 -6.20275123 7.46442316 -11 10 C-13.50079435 10.75809662 -15.35681122 10.94493357 -18 11 C-19 10 -19 10 -19.375 7.25 C-18.87712681 2.93509903 -17.34507938 1.6608586 -14 -1 C-9.3621262 -3.00974531 -4.13477622 -2.75651748 0 0 Z " fill="#FEF9EF" transform="translate(375,57)"/>
<path d="M0 0 C0 0.66 0 1.32 0 2 C-0.99 2.556875 -0.99 2.556875 -2 3.125 C-4.18104474 4.77406895 -4.18104474 4.77406895 -4.265625 6.97265625 C-4.25143795 8.98367086 -4.13159048 10.99324516 -4 13 C-0.37 13.33 3.26 13.66 7 14 C7 14.66 7 15.32 7 16 C4.91695462 16.05418326 2.83350232 16.09287551 0.75 16.125 C-0.41015625 16.14820312 -1.5703125 16.17140625 -2.765625 16.1953125 C-5.84681133 16.00925052 -7.4785909 15.71695953 -10 14 C-11.58939347 10.82121306 -11.41576711 8.5043228 -11 5 C-7.58512753 1.26746497 -5.16019034 -0.75885152 0 0 Z " fill="#FEAD12" transform="translate(254,55)"/>
<path d="M0 0 C0.66 0.33 1.32 0.66 2 1 C1.67 4.3 1.34 7.6 1 11 C3.31 11.33 5.62 11.66 8 12 C8 12.66 8 13.32 8 14 C4.30154377 15.23281874 0.82653848 15.85461926 -3 15 C-5.5 12 -5.5 12 -7 9 C-6.57847656 8.51789063 -6.15695312 8.03578125 -5.72265625 7.5390625 C-5.17480469 6.90742187 -4.62695312 6.27578125 -4.0625 5.625 C-3.51722656 4.99851562 -2.97195313 4.37203125 -2.41015625 3.7265625 C-0.93041376 2.04367666 -0.93041376 2.04367666 0 0 Z " fill="#FEAD10" transform="translate(356,56)"/>
<path d="M0 0 C0.33 1.32 0.66 2.64 1 4 C-4.00932754 7.00559652 -7.32723489 7.29341888 -13 7 C-12.69611836 4.06247746 -12.19330344 3.15919107 -9.875 1.25 C-6.40721317 -0.2577334 -3.74329002 -0.22019353 0 0 Z " fill="#FEF8ED" transform="translate(263,55)"/>
<path d="M0 0 C0 1.32 0 2.64 0 4 C-3.95433819 5.30090499 -7.94992436 5.1497373 -12.0625 5.125 C-12.84093262 5.12306641 -13.61936523 5.12113281 -14.42138672 5.11914062 C-23.29567398 5.05546226 -32.14463542 4.54977873 -41 4 C-41 3.67 -41 3.34 -41 3 C-40.03175293 2.98018066 -39.06350586 2.96036133 -38.06591797 2.93994141 C-34.45384898 2.86353782 -30.84216468 2.77487575 -27.23046875 2.68261719 C-25.67097602 2.64447039 -24.1113996 2.60959318 -22.55175781 2.578125 C-20.30243126 2.53216175 -18.05367385 2.47422192 -15.8046875 2.4140625 C-15.1138205 2.40251129 -14.42295349 2.39096008 -13.71115112 2.37905884 C-8.92239925 2.23494121 -4.59073872 0 0 0 Z " fill="#FEB939" transform="translate(464,42)"/>
<path d="M0 0 C0 3.27427197 -0.15818587 5.84319701 -1 9 C-1 8.01 -1 7.02 -1 6 C-1.77601563 6.44472656 -2.55203125 6.88945313 -3.3515625 7.34765625 C-12.13415323 11.94855999 -18.11336222 12.63047999 -28 11 C-28 10.67 -28 10.34 -28 10 C-26.69289062 9.88785156 -26.69289062 9.88785156 -25.359375 9.7734375 C-16.18629947 8.76082527 -6.76812807 6.76812807 0 0 Z " fill="#FEB934" transform="translate(280,58)"/>
<path d="M0 0 C1.89453125 0.80078125 1.89453125 0.80078125 4.89453125 2.80078125 C3.10015625 3.17203125 3.10015625 3.17203125 1.26953125 3.55078125 C-2.81262204 4.54061311 -5.62688675 6.45476083 -9.10546875 8.80078125 C-10.09546875 8.47078125 -11.08546875 8.14078125 -12.10546875 7.80078125 C-10.79967397 5.1891917 -9.19062026 4.26534555 -6.79296875 2.61328125 C-6.01308594 2.06285156 -5.23320312 1.51242188 -4.4296875 0.9453125 C-2.10546875 -0.19921875 -2.10546875 -0.19921875 0 0 Z " fill="#FEB427" transform="translate(324.10546875,54.19921875)"/>
<path d="M0 0 C2.125 0.9375 2.125 0.9375 4 2 C-1.35846947 5.57231298 -6.765775 5.12223971 -13 5 C-12.67 3.68 -12.34 2.36 -12 1 C-12 1.66 -12 2.32 -12 3 C-10.3743193 2.69106068 -8.74947252 2.3777305 -7.125 2.0625 C-6.22007812 1.88847656 -5.31515625 1.71445312 -4.3828125 1.53515625 C-2.00043683 1.10036299 -2.00043683 1.10036299 0 0 Z " fill="#FEBD42" transform="translate(262,59)"/>
<path d="M0 0 C0.66 0.66 1.32 1.32 2 2 C0.04260958 3.3139058 -1.91594125 4.62608302 -3.875 5.9375 C-4.96554688 6.66839844 -6.05609375 7.39929687 -7.1796875 8.15234375 C-10 10 -10 10 -12 11 C-11.84765625 9.234375 -11.84765625 9.234375 -11 7 C-8.49609375 5.078125 -8.49609375 5.078125 -5.4375 3.25 C-4.42558594 2.63640625 -3.41367188 2.0228125 -2.37109375 1.390625 C-1.58863281 0.93171875 -0.80617188 0.4728125 0 0 Z " fill="#FEEECB" transform="translate(69,49)"/>
<path d="M0 0 C-1.24460783 0.67667998 -2.49596896 1.34094719 -3.75 2 C-4.44609375 2.37125 -5.1421875 2.7425 -5.859375 3.125 C-8 4 -8 4 -12 4 C-12 3.01 -12 2.02 -12 1 C-3.96428571 -1.27678571 -3.96428571 -1.27678571 0 0 Z " fill="#FDAD1B" transform="translate(202,49)"/>
<path d="M0 0 C0 3.27427197 -0.15818587 5.84319701 -1 9 C-1 8.01 -1 7.02 -1 6 C-2.1446875 6.556875 -2.1446875 6.556875 -3.3125 7.125 C-4.199375 7.41375 -5.08625 7.7025 -6 8 C-6.99 7.34 -7.98 6.68 -9 6 C-8.43410156 5.65066406 -7.86820312 5.30132812 -7.28515625 4.94140625 C-6.55167969 4.48636719 -5.81820313 4.03132813 -5.0625 3.5625 C-4.33160156 3.11003906 -3.60070312 2.65757813 -2.84765625 2.19140625 C-1.06100191 1.13135967 -1.06100191 1.13135967 0 0 Z " fill="#FEBB3A" transform="translate(280,58)"/>
<path d="M0 0 C1.63001953 0.01353516 1.63001953 0.01353516 3.29296875 0.02734375 C4.12441406 0.03894531 4.95585937 0.05054688 5.8125 0.0625 C1.7160657 2.29858494 -1.53908318 2.76736242 -6.1875 3.0625 C-7.1775 2.4025 -8.1675 1.7425 -9.1875 1.0625 C-5.90230525 -0.03256492 -3.45086585 -0.03710608 0 0 Z " fill="#FEBF45" transform="translate(260.1875,52.9375)"/>
<path d="M0 0 C1.2065625 0.0309375 1.2065625 0.0309375 2.4375 0.0625 C1.4475 0.7225 0.4575 1.3825 -0.5625 2.0625 C-0.92710453 4.72903905 -0.92710453 4.72903905 -0.75 7.6875 C-0.72292969 8.69039062 -0.69585937 9.69328125 -0.66796875 10.7265625 C-0.63316406 11.49742188 -0.59835938 12.26828125 -0.5625 13.0625 C-0.8925 13.0625 -1.2225 13.0625 -1.5625 13.0625 C-1.92348063 11.08456479 -2.27611348 9.10510427 -2.625 7.125 C-2.82222656 6.02285156 -3.01945313 4.92070313 -3.22265625 3.78515625 C-3.33480469 2.88667969 -3.44695312 1.98820312 -3.5625 1.0625 C-2.5625 0.0625 -2.5625 0.0625 0 0 Z " fill="#FEBD3F" transform="translate(176.5625,44.9375)"/>
<path d="M0 0 C-1 3 -1 3 -3.0625 4.1875 C-3.701875 4.455625 -4.34125 4.72375 -5 5 C-5.99 4.34 -6.98 3.68 -8 3 C-3.375 0 -3.375 0 0 0 Z " fill="#FEB52A" transform="translate(405,58)"/>
<path d="M0 0 C-1.1875 1.5 -1.1875 1.5 -3 3 C-5.6875 3.1875 -5.6875 3.1875 -8 3 C-8 2.34 -8 1.68 -8 1 C-5.29120665 -0.35439668 -2.99066732 -0.06501451 0 0 Z " fill="#FEB11F" transform="translate(274,65)"/>
<path d="M0 0 C0 0.99 0 1.98 0 3 C-1.65 3.66 -3.3 4.32 -5 5 C-5.33 4.01 -5.66 3.02 -6 2 C-3 0 -3 0 0 0 Z " fill="#FDBA3F" transform="translate(302,64)"/>
<path d="M0 0 C0.66 0.33 1.32 0.66 2 1 C0.515 3.475 0.515 3.475 -1 6 C-2.32 5.67 -3.64 5.34 -5 5 C-3.768606 2.53721199 -2.21935077 1.57502313 0 0 Z " fill="#FEB933" transform="translate(317,57)"/>
<path d="M0 0 C-2.66666667 1.33333333 -5.33333333 2.66666667 -8 4 C-8 2.68 -8 1.36 -8 0 C-5.13822943 -1.43088528 -3.06624227 -0.59991697 0 0 Z " fill="#FEB62C" transform="translate(365,55)"/>
<path d="M0 0 C0 1.32 0 2.64 0 4 C-2.64 3.67 -5.28 3.34 -8 3 C-8 2.67 -8 2.34 -8 2 C-2.25 0 -2.25 0 0 0 Z " fill="#FDBE4B" transform="translate(464,42)"/>
</svg>
